<?xml version="1.0" encoding="utf-8"?>
<!-- Generator: Adobe Illustrator 16.0.0, SVG Export Plug-In . SVG Version: 6.00 Build 0)  -->
<!DOCTYPE svg PUBLIC "-//W3C//DTD SVG 1.1//EN" "http://www.w3.org/Graphics/SVG/1.1/DTD/svg11.dtd">
<svg version="1.1" id="Layer_1" xmlns="http://www.w3.org/2000/svg" xmlns:xlink="http://www.w3.org/1999/xlink" x="0px" y="0px"
	 width="806px" height="598.9px" viewBox="0 0 806 598.9" enable-background="new 0 0 806 598.9" xml:space="preserve">
<pattern  x="-21.5" y="623.95" width="71" height="71" patternUnits="userSpaceOnUse" id="SVGID_1_" viewBox="0 -71 71 71" overflow="visible">
	<g>
		<polygon fill="none" points="0,0 71,0 71,-71 0,-71 		"/>
		<g>
			<polygon fill="none" points="0,-71 71,-71 71,0 0,0 			"/>
			<g>
				<polygon fill="none" points="0,0 71,0 71,-71 0,-71 				"/>
				<g>
					<polygon fill="none" points="0,0 71,0 71,-71 0,-71 					"/>
					<path fill="#B3B3B3" d="M41.8-35.5c0-3.5-2.8-6.3-6.3-6.3s-6.3,2.8-6.3,6.3s2.8,6.3,6.3,6.3S41.8-32,41.8-35.5z"/>
				</g>
			</g>
		</g>
	</g>
</pattern>
<pattern  x="-21.5" y="623.95" width="40" height="103" patternUnits="userSpaceOnUse" id="SVGID_2_" viewBox="0 -231.7 40 103" overflow="visible">
	<g>
		<polygon fill="none" points="0,-128.7 40,-128.7 40,-231.7 0,-231.7 		"/>
		<g>
			<polygon fill="none" points="0,-231.7 40,-231.7 40,-128.7 0,-128.7 			"/>
			<g>
				<polygon fill="none" points="0,-128.7 40,-128.7 40,-231.7 0,-231.7 				"/>
				<g>
					<polygon fill="none" points="0,-128.7 40,-128.7 40,-231.7 0,-231.7 					"/>
					<polygon points="34.5,-360.5 37.5,-360.5 37.5,-206 34.5,-206 					"/>
					<polygon points="26.5,-360.5 29.5,-360.5 29.5,-206 26.5,-206 					"/>
					<polygon points="18.5,-360.5 21.5,-360.5 21.5,-206 18.5,-206 					"/>
					<polygon points="10.5,-360.5 13.5,-360.5 13.5,-206 10.5,-206 					"/>
					<polygon points="2.5,-360.5 5.5,-360.5 5.5,-206 2.5,-206 					"/>
					<polygon points="34.5,-257.5 37.5,-257.5 37.5,-103 34.5,-103 					"/>
					<polygon points="26.5,-257.5 29.5,-257.5 29.5,-103 26.5,-103 					"/>
					<polygon points="18.5,-257.5 21.5,-257.5 21.5,-103 18.5,-103 					"/>
					<polygon points="10.5,-257.5 13.5,-257.5 13.5,-103 10.5,-103 					"/>
					<polygon points="2.5,-257.5 5.5,-257.5 5.5,-103 2.5,-103 					"/>
					<polygon points="34.5,-154.5 37.5,-154.5 37.5,0 34.5,0 					"/>
					<polygon points="26.5,-154.5 29.5,-154.5 29.5,0 26.5,0 					"/>
					<polygon points="18.5,-154.5 21.5,-154.5 21.5,0 18.5,0 					"/>
					<polygon points="10.5,-154.5 13.5,-154.5 13.5,0 10.5,0 					"/>
					<polygon points="2.5,-154.5 5.5,-154.5 5.5,0 2.5,0 					"/>
				</g>
			</g>
		</g>
	</g>
</pattern>
<pattern  x="-21.5" y="623.95" width="40" height="103" patternUnits="userSpaceOnUse" id="SVGID_3_" viewBox="0 -231.7 40 103" overflow="visible">
	<g>
		<polygon fill="none" points="0,-128.7 40,-128.7 40,-231.7 0,-231.7 		"/>
		<g>
			<polygon fill="none" points="0,-231.7 40,-231.7 40,-128.7 0,-128.7 			"/>
			<g>
				<polygon fill="none" points="0,-128.7 40,-128.7 40,-231.7 0,-231.7 				"/>
				<g>
					<polygon fill="none" points="0,-128.7 40,-128.7 40,-231.7 0,-231.7 					"/>
					<polygon points="34.5,-360.5 37.5,-360.5 37.5,-206 34.5,-206 					"/>
					<polygon points="26.5,-360.5 29.5,-360.5 29.5,-206 26.5,-206 					"/>
					<polygon points="18.5,-360.5 21.5,-360.5 21.5,-206 18.5,-206 					"/>
					<polygon points="10.5,-360.5 13.5,-360.5 13.5,-206 10.5,-206 					"/>
					<polygon points="2.5,-360.5 5.5,-360.5 5.5,-206 2.5,-206 					"/>
					<polygon points="34.5,-257.5 37.5,-257.5 37.5,-103 34.5,-103 					"/>
					<polygon points="26.5,-257.5 29.5,-257.5 29.5,-103 26.5,-103 					"/>
					<polygon points="18.5,-257.5 21.5,-257.5 21.5,-103 18.5,-103 					"/>
					<polygon points="10.5,-257.5 13.5,-257.5 13.5,-103 10.5,-103 					"/>
					<polygon points="2.5,-257.5 5.5,-257.5 5.5,-103 2.5,-103 					"/>
					<polygon points="34.5,-154.5 37.5,-154.5 37.5,0 34.5,0 					"/>
					<polygon points="26.5,-154.5 29.5,-154.5 29.5,0 26.5,0 					"/>
					<polygon points="18.5,-154.5 21.5,-154.5 21.5,0 18.5,0 					"/>
					<polygon points="10.5,-154.5 13.5,-154.5 13.5,0 10.5,0 					"/>
					<polygon points="2.5,-154.5 5.5,-154.5 5.5,0 2.5,0 					"/>
				</g>
			</g>
		</g>
	</g>
</pattern>
<g>
	<g>
		<path fill="#080808" d="M530.301,122.3c0-1-0.801-1.9-1.899-1.9H402.9l0,0H277.3c-1,0-1.9,0.8-1.9,1.9v6v123.2
			c0,8.6,7,15.6,15.6,15.6h111.9l0,0H514.8c8.601,0,15.601-7,15.601-15.6V128.4L530.301,122.3z"/>
		<g opacity="0.12">
			
				<pattern  id="SVGID_4_" xlink:href="#SVGID_1_" patternTransform="matrix(0.1017 0 0 -0.1017 -25751.7402 -4294.7305)"  opacity="0.12">
			</pattern>
			<path fill="url(#SVGID_4_)" d="M275.4,251.5c0,8.6,7,15.6,15.6,15.6h111.9l0,0H514.8c8.601,0,15.601-7,15.601-15.6V145h-255
				V251.5L275.4,251.5z"/>
		</g>
	</g>
</g>
<g>
	<g>
		<defs>
			<polyline id="SVGID_5_" points="806.258,504.846 0.144,504.846 0.148,595.039 806.253,595.039 806.253,504.846 			"/>
		</defs>
		<clipPath id="SVGID_6_">
			<use xlink:href="#SVGID_5_"  overflow="visible"/>
		</clipPath>
		<g clip-path="url(#SVGID_6_)">
			<defs>
				<rect id="SVGID_7_" x="-0.331" y="504.406" width="807.063" height="91.112"/>
			</defs>
			<clipPath id="SVGID_8_">
				<use xlink:href="#SVGID_7_"  overflow="visible"/>
			</clipPath>
			<g transform="matrix(1 0 0 1 0 3.051758e-005)" clip-path="url(#SVGID_8_)">
				
					<image overflow="visible" width="1683" height="190" xlink:href="687B7636.jpg"  transform="matrix(0.4795 0 0 0.4795 -0.3311 504.4063)">
				</image>
			</g>
		</g>
	</g>
	<g>
		<defs>
			<polyline id="SVGID_9_" points="806.258,108.263 0.144,108.263 0.144,504.846 0.148,108.308 806.253,108.308 806.253,504.846 
				806.258,504.846 806.258,108.263 			"/>
		</defs>
		<clipPath id="SVGID_10_">
			<use xlink:href="#SVGID_9_"  overflow="visible"/>
		</clipPath>
		<g clip-path="url(#SVGID_10_)">
			<defs>
				<rect id="SVGID_11_" x="-0.815" y="107.304" width="808.031" height="34.048"/>
			</defs>
			<clipPath id="SVGID_12_">
				<use xlink:href="#SVGID_11_"  overflow="visible"/>
			</clipPath>
			<g transform="matrix(1 0 0 1 0 7.629395e-006)" clip-path="url(#SVGID_12_)">
				
					<image overflow="visible" width="1685" height="71" xlink:href="687B763A.jpg"  transform="matrix(0.4795 0 0 0.4795 -0.8154 107.3037)">
				</image>
			</g>
		</g>
		<g clip-path="url(#SVGID_10_)">
			<defs>
				<rect id="SVGID_13_" x="-0.815" y="140.392" width="35.966" height="365.413"/>
			</defs>
			<clipPath id="SVGID_14_">
				<use xlink:href="#SVGID_13_"  overflow="visible"/>
			</clipPath>
			<g transform="matrix(1 0 0 1 0 0)" clip-path="url(#SVGID_14_)">
				
					<image overflow="visible" width="75" height="762" xlink:href="687B763D.jpg"  transform="matrix(0.4795 0 0 0.4795 -0.8154 140.3921)">
				</image>
			</g>
		</g>
		<g clip-path="url(#SVGID_10_)">
			<defs>
				<rect id="SVGID_15_" x="771.25" y="140.392" width="35.966" height="365.413"/>
			</defs>
			<clipPath id="SVGID_16_">
				<use xlink:href="#SVGID_15_"  overflow="visible"/>
			</clipPath>
			<g transform="matrix(1 0 0 1 0 0)" clip-path="url(#SVGID_16_)">
				
					<image overflow="visible" width="75" height="762" xlink:href="687B763E.jpg"  transform="matrix(0.4795 0 0 0.4795 771.25 140.3921)">
				</image>
			</g>
		</g>
	</g>
	<g>
		<defs>
			<path id="SVGID_17_" d="M196.145,146.235v-31.828h140.509v2.187h200.875v23.214h32.781v6.297h176.628v290.18H198.182v-58.063
				h-2.037v-42.869H59.759V146.235H196.145 M806.253,108.308H0.148v396.538h806.109L806.253,108.308"/>
		</defs>
		<clipPath id="SVGID_18_">
			<use xlink:href="#SVGID_17_"  overflow="visible"/>
		</clipPath>
		<g clip-path="url(#SVGID_18_)">
			<defs>
				<rect id="SVGID_19_" x="-0.332" y="107.828" width="210.945" height="66.722"/>
			</defs>
			<clipPath id="SVGID_20_">
				<use xlink:href="#SVGID_19_"  overflow="visible"/>
			</clipPath>
			<g transform="matrix(1 0 0 1 -2.980232e-008 0)" clip-path="url(#SVGID_20_)">
				
					<image overflow="visible" width="879" height="278" xlink:href="687B763C.jpg"  transform="matrix(0.24 0 0 0.24 -0.3315 107.8276)">
				</image>
			</g>
		</g>
		<g clip-path="url(#SVGID_18_)">
			<defs>
				<rect id="SVGID_21_" x="210.134" y="107.828" width="596.598" height="33.601"/>
			</defs>
			<clipPath id="SVGID_22_">
				<use xlink:href="#SVGID_21_"  overflow="visible"/>
			</clipPath>
			<g clip-path="url(#SVGID_22_)">
				
					<image overflow="visible" width="2486" height="140" xlink:href="687B763B.jpg"  transform="matrix(0.24 0 0 0.24 210.1338 107.8276)">
				</image>
			</g>
		</g>
		<g clip-path="url(#SVGID_18_)">
			<defs>
				<rect id="SVGID_23_" x="560.749" y="140.948" width="245.982" height="33.601"/>
			</defs>
			<clipPath id="SVGID_24_">
				<use xlink:href="#SVGID_23_"  overflow="visible"/>
			</clipPath>
			<g clip-path="url(#SVGID_24_)">
				
					<image overflow="visible" width="1025" height="140" xlink:href="687B7635.jpg"  transform="matrix(0.24 0 0 0.24 560.749 140.9482)">
				</image>
			</g>
		</g>
		<g clip-path="url(#SVGID_18_)">
			<defs>
				<rect id="SVGID_25_" x="-0.332" y="174.069" width="70.555" height="331.208"/>
			</defs>
			<clipPath id="SVGID_26_">
				<use xlink:href="#SVGID_25_"  overflow="visible"/>
			</clipPath>
			<g transform="matrix(1 0 0 1 -2.980232e-008 0)" clip-path="url(#SVGID_26_)">
				
					<image overflow="visible" width="294" height="1380" xlink:href="687B7637.jpg"  transform="matrix(0.24 0 0 0.24 -0.3315 174.0693)">
				</image>
			</g>
		</g>
		<g clip-path="url(#SVGID_18_)">
			<defs>
				<rect id="SVGID_27_" x="736.177" y="174.069" width="70.555" height="331.208"/>
			</defs>
			<clipPath id="SVGID_28_">
				<use xlink:href="#SVGID_27_"  overflow="visible"/>
			</clipPath>
			<g clip-path="url(#SVGID_28_)">
				
					<image overflow="visible" width="294" height="1380" xlink:href="687B7634.jpg"  transform="matrix(0.24 0 0 0.24 736.1768 174.0693)">
				</image>
			</g>
		</g>
		<g clip-path="url(#SVGID_18_)">
			<defs>
				<rect id="SVGID_29_" x="69.744" y="306.313" width="140.87" height="198.965"/>
			</defs>
			<clipPath id="SVGID_30_">
				<use xlink:href="#SVGID_29_"  overflow="visible"/>
			</clipPath>
			<g clip-path="url(#SVGID_30_)">
				
					<image overflow="visible" width="587" height="829" xlink:href="19D81629.jpg"  transform="matrix(0.24 0 0 0.24 69.7437 306.3125)">
				</image>
			</g>
		</g>
		<g clip-path="url(#SVGID_18_)">
			<defs>
				<rect id="SVGID_31_" x="210.134" y="405.675" width="456.208" height="99.603"/>
			</defs>
			<clipPath id="SVGID_32_">
				<use xlink:href="#SVGID_31_"  overflow="visible"/>
			</clipPath>
			<g clip-path="url(#SVGID_32_)">
				
					<image overflow="visible" width="1901" height="415" xlink:href="19D8162F.jpg"  transform="matrix(0.24 0 0 0.24 210.1338 405.6748)">
				</image>
			</g>
		</g>
		<g clip-path="url(#SVGID_18_)">
			<defs>
				<rect id="SVGID_33_" x="665.861" y="405.675" width="70.795" height="99.603"/>
			</defs>
			<clipPath id="SVGID_34_">
				<use xlink:href="#SVGID_33_"  overflow="visible"/>
			</clipPath>
			<g transform="matrix(1 0 0 1 6.103516e-005 0)" clip-path="url(#SVGID_34_)">
				
					<image overflow="visible" width="295" height="415" xlink:href="19D81628.jpg"  transform="matrix(0.24 0 0 0.24 665.8613 405.6748)">
				</image>
			</g>
		</g>
	</g>
	<g>
		<defs>
			<polyline id="SVGID_35_" points="196.145,146.235 59.759,146.235 59.759,335.353 196.145,335.353 196.145,146.235 			"/>
		</defs>
		<clipPath id="SVGID_36_">
			<use xlink:href="#SVGID_35_"  overflow="visible"/>
		</clipPath>
		<g clip-path="url(#SVGID_36_)">
			<defs>
				<rect id="SVGID_37_" x="59.519" y="145.995" width="136.801" height="189.597"/>
			</defs>
			<clipPath id="SVGID_38_">
				<use xlink:href="#SVGID_37_"  overflow="visible"/>
			</clipPath>
			<g transform="matrix(1 0 0 1 -3.814697e-006 -1.525879e-005)" clip-path="url(#SVGID_38_)">
				
					<image overflow="visible" width="570" height="790" xlink:href="19D8162B.jpg"  transform="matrix(0.24 0 0 0.24 59.5186 145.9951)">
				</image>
			</g>
		</g>
	</g>
	<g>
		<defs>
			<polyline id="SVGID_39_" points="537.529,116.594 336.654,116.594 336.654,146.104 403.128,146.104 403.128,139.808 
				537.529,139.808 537.529,116.594 			"/>
		</defs>
		<clipPath id="SVGID_40_">
			<use xlink:href="#SVGID_39_"  overflow="visible"/>
		</clipPath>
		<g clip-path="url(#SVGID_40_)">
			<defs>
				<rect id="SVGID_41_" x="336.334" y="116.354" width="201.435" height="30"/>
			</defs>
			<clipPath id="SVGID_42_">
				<use xlink:href="#SVGID_41_"  overflow="visible"/>
			</clipPath>
			<g transform="matrix(1 0 0 1 -3.051758e-005 -7.629395e-006)" clip-path="url(#SVGID_42_)">
				
					<image overflow="visible" width="839" height="125" xlink:href="19D81637.jpg"  transform="matrix(0.2401 0 0 0.24 336.3345 116.3535)">
				</image>
			</g>
		</g>
	</g>
	<g>
		<defs>
			<polyline id="SVGID_43_" points="746.938,146.104 570.311,146.104 570.311,358.579 403.128,358.579 403.128,273.314 
				336.654,273.314 336.654,378.222 198.182,378.222 198.182,436.284 746.938,436.284 746.938,146.104 			"/>
		</defs>
		<clipPath id="SVGID_44_">
			<use xlink:href="#SVGID_43_"  overflow="visible"/>
		</clipPath>
		<g clip-path="url(#SVGID_44_)">
			<defs>
				<rect id="SVGID_45_" x="540.975" y="145.625" width="206.443" height="226.576"/>
			</defs>
			<clipPath id="SVGID_46_">
				<use xlink:href="#SVGID_45_"  overflow="visible"/>
			</clipPath>
			<g clip-path="url(#SVGID_46_)">
				
					<image overflow="visible" width="860" height="944" xlink:href="19D81627.jpg"  transform="matrix(0.2401 0 0 0.24 540.9746 145.6245)">
				</image>
			</g>
		</g>
		<g clip-path="url(#SVGID_44_)">
			<defs>
				<rect id="SVGID_47_" x="335.011" y="242.591" width="69.135" height="194.173"/>
			</defs>
			<clipPath id="SVGID_48_">
				<use xlink:href="#SVGID_47_"  overflow="visible"/>
			</clipPath>
			<g clip-path="url(#SVGID_48_)">
				
					<image overflow="visible" width="288" height="809" xlink:href="19D81639.jpg"  transform="matrix(0.2401 0 0 0.24 335.0107 242.5913)">
				</image>
			</g>
		</g>
		<g clip-path="url(#SVGID_44_)">
			<defs>
				<rect id="SVGID_49_" x="403.665" y="339.317" width="137.789" height="97.446"/>
			</defs>
			<clipPath id="SVGID_50_">
				<use xlink:href="#SVGID_49_"  overflow="visible"/>
			</clipPath>
			<g clip-path="url(#SVGID_50_)">
				
					<image overflow="visible" width="574" height="406" xlink:href="19D8163B.jpg"  transform="matrix(0.2401 0 0 0.24 403.665 339.3174)">
				</image>
			</g>
		</g>
		<g clip-path="url(#SVGID_44_)">
			<defs>
				<rect id="SVGID_51_" x="197.702" y="371.72" width="137.789" height="65.045"/>
			</defs>
			<clipPath id="SVGID_52_">
				<use xlink:href="#SVGID_51_"  overflow="visible"/>
			</clipPath>
			<g transform="matrix(1 0 0 1 -1.525879e-005 0)" clip-path="url(#SVGID_52_)">
				
					<image overflow="visible" width="574" height="271" xlink:href="19D81638.jpg"  transform="matrix(0.2401 0 0 0.24 197.7017 371.7197)">
				</image>
			</g>
		</g>
		<g clip-path="url(#SVGID_44_)">
			<defs>
				<rect id="SVGID_53_" x="540.975" y="371.72" width="206.443" height="65.045"/>
			</defs>
			<clipPath id="SVGID_54_">
				<use xlink:href="#SVGID_53_"  overflow="visible"/>
			</clipPath>
			<g clip-path="url(#SVGID_54_)">
				
					<image overflow="visible" width="860" height="271" xlink:href="19D8163F.jpg"  transform="matrix(0.2401 0 0 0.24 540.9746 371.7197)">
				</image>
			</g>
		</g>
	</g>
	<g>
		<defs>
			<polyline id="SVGID_55_" points="403.128,146.104 336.654,146.104 336.654,273.314 403.128,273.314 403.128,146.104 			"/>
		</defs>
		<clipPath id="SVGID_56_">
			<use xlink:href="#SVGID_55_"  overflow="visible"/>
		</clipPath>
		<g clip-path="url(#SVGID_56_)">
			<defs>
				<rect id="SVGID_57_" x="336.334" y="145.874" width="66.985" height="127.68"/>
			</defs>
			<clipPath id="SVGID_58_">
				<use xlink:href="#SVGID_57_"  overflow="visible"/>
			</clipPath>
			<g transform="matrix(1 0 0 1 -3.051758e-005 0)" clip-path="url(#SVGID_58_)">
				
					<image overflow="visible" width="279" height="532" xlink:href="19D8165C.jpg"  transform="matrix(0.2401 0 0 0.24 336.3345 145.874)">
				</image>
			</g>
		</g>
	</g>
	<g>
		<defs>
			<path id="SVGID_59_" d="M198.182,335.353h-2.037v42.869h2.037V335.353 M336.654,114.407H196.145v31.828h2.037v-0.131h70.208
				v-29.511h68.265V114.407"/>
		</defs>
		<clipPath id="SVGID_60_">
			<use xlink:href="#SVGID_59_"  overflow="visible"/>
		</clipPath>
		<g clip-path="url(#SVGID_60_)">
			<defs>
				<rect id="SVGID_61_" x="195.905" y="114.167" width="140.99" height="264.294"/>
			</defs>
			<clipPath id="SVGID_62_">
				<use xlink:href="#SVGID_61_"  overflow="visible"/>
			</clipPath>
			<g transform="matrix(1 0 0 1 -1.525879e-005 0)" clip-path="url(#SVGID_62_)">
				
					<image overflow="visible" width="587" height="1101" xlink:href="19D8165F.jpg"  transform="matrix(0.2402 0 0 0.24 195.9048 114.167)">
				</image>
			</g>
		</g>
	</g>
	<g>
		<defs>
			<polyline id="SVGID_63_" points="198.182,146.235 196.145,146.235 196.145,335.353 198.182,335.353 198.182,146.235 			"/>
		</defs>
		<clipPath id="SVGID_64_">
			<use xlink:href="#SVGID_63_"  overflow="visible"/>
		</clipPath>
		<g clip-path="url(#SVGID_64_)">
			<defs>
				<rect id="SVGID_65_" x="195.84" y="145.995" width="2.64" height="189.597"/>
			</defs>
			<clipPath id="SVGID_66_">
				<use xlink:href="#SVGID_65_"  overflow="visible"/>
			</clipPath>
			<g transform="matrix(1 0 0 1 -1.525879e-005 -1.525879e-005)" clip-path="url(#SVGID_66_)">
				
					<image overflow="visible" width="11" height="790" xlink:href="19D8165D.jpg"  transform="matrix(0.24 0 0 0.24 195.8398 145.9951)">
				</image>
			</g>
		</g>
	</g>
	<g>
		<defs>
			<polyline id="SVGID_67_" points="336.654,116.594 268.389,116.594 268.389,146.104 336.654,146.104 336.654,116.594 			"/>
		</defs>
		<clipPath id="SVGID_68_">
			<use xlink:href="#SVGID_67_"  overflow="visible"/>
		</clipPath>
		<g clip-path="url(#SVGID_68_)">
			<defs>
				<rect id="SVGID_69_" x="268.149" y="116.354" width="68.666" height="30"/>
			</defs>
			<clipPath id="SVGID_70_">
				<use xlink:href="#SVGID_69_"  overflow="visible"/>
			</clipPath>
			<g transform="matrix(1 0 0 1 0 -7.629395e-006)" clip-path="url(#SVGID_70_)">
				
					<image overflow="visible" width="286" height="125" xlink:href="19D81653.jpg"  transform="matrix(0.2401 0 0 0.24 268.1489 116.3535)">
				</image>
			</g>
		</g>
	</g>
	<g>
		<defs>
			<polyline id="SVGID_71_" points="268.389,146.104 198.182,146.104 198.182,146.235 247.92,146.235 247.92,335.353 
				198.182,335.353 198.182,378.222 336.654,378.222 336.654,273.314 268.389,273.314 268.389,146.104 			"/>
		</defs>
		<clipPath id="SVGID_72_">
			<use xlink:href="#SVGID_71_"  overflow="visible"/>
		</clipPath>
		<g clip-path="url(#SVGID_72_)">
			<defs>
				<rect id="SVGID_73_" x="197.826" y="145.854" width="139.068" height="232.607"/>
			</defs>
			<clipPath id="SVGID_74_">
				<use xlink:href="#SVGID_73_"  overflow="visible"/>
			</clipPath>
			<g clip-path="url(#SVGID_74_)">
				
					<image overflow="visible" width="579" height="969" xlink:href="19D81654.jpg"  transform="matrix(0.2402 0 0 0.24 197.8262 145.8535)">
				</image>
			</g>
		</g>
	</g>
	<g>
		<defs>
			<polyline id="SVGID_75_" points="247.92,146.235 198.182,146.235 198.182,335.353 247.92,335.353 247.92,146.235 			"/>
		</defs>
		<clipPath id="SVGID_76_">
			<use xlink:href="#SVGID_75_"  overflow="visible"/>
		</clipPath>
		<g clip-path="url(#SVGID_76_)">
			<defs>
				<rect id="SVGID_77_" x="198" y="145.995" width="50.161" height="189.597"/>
			</defs>
			<clipPath id="SVGID_78_">
				<use xlink:href="#SVGID_77_"  overflow="visible"/>
			</clipPath>
			<g transform="matrix(1 0 0 1 0 -1.525879e-005)" clip-path="url(#SVGID_78_)">
				
					<image overflow="visible" width="209" height="790" xlink:href="19D81657.jpg"  transform="matrix(0.24 0 0 0.24 198 145.9951)">
				</image>
			</g>
		</g>
	</g>
	<g>
		<defs>
			<polyline id="SVGID_79_" points="336.654,146.104 268.389,146.104 268.389,273.314 336.654,273.314 336.654,146.104 			"/>
		</defs>
		<clipPath id="SVGID_80_">
			<use xlink:href="#SVGID_79_"  overflow="visible"/>
		</clipPath>
		<g clip-path="url(#SVGID_80_)">
			<defs>
				<rect id="SVGID_81_" x="268.149" y="145.874" width="68.666" height="127.68"/>
			</defs>
			<clipPath id="SVGID_82_">
				<use xlink:href="#SVGID_81_"  overflow="visible"/>
			</clipPath>
			<g clip-path="url(#SVGID_82_)">
				
					<image overflow="visible" width="286" height="532" xlink:href="19D81655.jpg"  transform="matrix(0.2401 0 0 0.24 268.1489 145.874)">
				</image>
			</g>
		</g>
	</g>
	<path fill="#FFFFFF" d="M686.34,448.504c0.796-2.39,0.403-4.014-1.181-4.872c-1.652-0.896-3.519,0.07-5.599,2.902
		c-0.676,0.908-1.852,2.91-3.529,6.004c-0.096,0.176-0.342,0.588-0.739,1.236c-0.397,0.65-0.721,1.203-0.968,1.66
		c-2.308,4.254-2.405,6.954-0.296,8.098c0.456,0.248,1.109,0.363,1.962,0.348c0.85-0.018,1.453-0.225,1.807-0.625
		c1.377-1.618,3.362-4.819,5.956-9.602C685.278,450.841,686.142,449.124,686.34,448.504z M690.188,464.003
		c-0.341,0.248-0.54,0.47-0.599,0.664c-2.406,5.021-5.506,8.096-9.302,9.223c-3.344,0.963-7.019,0.357-11.028-1.816
		c-5.239-2.842-7.695-6.789-7.364-11.844c0.225-3.018,1.711-7.058,4.456-12.121c3.375-6.225,6.392-10.276,9.05-12.157
		c4.309-3.079,9.54-2.95,15.693,0.388c3.517,1.906,5.408,5.049,5.674,9.424c0.23,3.857-0.773,7.635-3.008,11.338
		c-0.343,0.633-0.901,1.787-1.673,3.461c-0.793,1.801-1.209,2.734-1.247,2.805C690.745,463.543,690.528,463.755,690.188,464.003z
		 M699.148,453.333c0.322-8.652-2.943-14.838-9.801-18.556c-5.135-2.784-9.809-2.725-14.021,0.178
		c-2.948,1.997-5.795,5.526-8.541,10.591c-0.076,0.141-0.587,1.25-1.533,3.33c-0.945,2.082-1.544,3.352-1.792,3.808
		c-2.688,4.958-3.196,10.257-1.521,15.897c1.589,5.458,4.601,9.389,9.032,11.791c4.431,2.402,8.775,2.779,13.037,1.131
		c3.971-1.531,7.109-4.425,9.417-8.68C697.029,466.177,698.937,459.681,699.148,453.333z M660.337,434.266
		c-3.493,4.749-6.251,8.44-8.274,11.073c-1.541,2.169-3.071,4.32-4.592,6.454c-1.969,2.71-3.322,4.114-4.059,4.216l-10.482-5.684
		l5.556-19.922c-1.977,2.387-4.169,5.384-6.58,8.991c-2.224,3.345-4.098,5.878-5.621,7.601c-4.485-2.205-7.429-3.688-8.834-4.45
		c-1.229-0.667-1.802-1.204-1.716-1.612c0.65-3.381,1.661-7.338,3.032-11.875c1.204-3.898,2.409-7.797,3.614-11.695
		c0.32-1.1,0.877-3.321,1.674-6.662c0.732-2.967,1.154-4.512,1.266-4.634l1.124-2.054c0.735,0.49,1.932,1.139,3.587,1.944
		c2.148,1.073,3.064,1.524,2.748,1.354c0.914,0.495,1.363,0.968,1.349,1.413c-0.444,2.582-0.897,4.633-1.358,6.157
		c-0.517,2.041-1.031,4.083-1.547,6.124c-0.636,2.432-0.96,4.371-0.971,5.82c0.834-0.87,3.117-3.946,6.846-9.229
		c2.808-4.002,4.58-5.803,5.318-5.402l9.494,5.148c-0.241,1.787-0.973,4.857-2.197,9.215c-1.382,4.73-2.241,8.076-2.576,10.038
		c0.19,0.149,0.359,0.173,0.507,0.07c2.367-3.19,4.733-6.38,7.1-9.569c3.025-4.065,4.861-5.899,5.51-5.502l6.329,3.432l-1.198,2.217
		C665.231,427.524,663.549,429.865,660.337,434.266z M669.573,433.61c0.02-1.127-0.35-2.965-1.105-5.515
		c-0.757-2.548-1.417-3.976-1.979-4.28c-0.211-0.115-1.251-0.633-3.116-1.555c-2.238-1.076-3.735-1.797-4.492-2.162
		c-0.457,0.254-1.118,1.01-1.982,2.271c-0.731,1.014-1.401,1.491-2.007,1.437c-0.475-1.896-0.948-3.791-1.422-5.686
		c-0.259-0.867-1.056-1.664-2.392-2.389c-0.984-0.534-2.887-1.475-5.705-2.82c-2.96-1.423-4.591-2.148-4.895-2.176
		c-0.22,0.153-0.727,0.879-1.522,2.178c-0.585,0.91-1.251,1.3-1.998,1.168c-0.364-1.426-0.729-2.852-1.094-4.278
		c-0.467-1.573-0.98-2.513-1.543-2.817c0.281,0.152-0.318-0.126-1.798-0.838c-1.48-0.711-3.485-1.754-6.018-3.126
		c-0.352-0.19-0.8-0.206-1.341-0.045c-2.595,9.65-4.554,16.87-5.876,21.659c-0.616,2.396-1.216,4.801-1.797,7.216
		c-0.74,2.874-1.428,5.232-2.062,7.073c-0.313,0.831-0.367,2.691-0.158,5.579c0.214,3.211,0.73,5.198,1.548,5.958
		c0.12,0.111,1.395,0.824,3.821,2.141c0.141,0.076,1.069,0.523,2.788,1.342c1.717,0.818,2.973,1.418,3.766,1.803
		c0.49-0.234,1.175-0.909,2.055-2.025c0.729-0.924,1.326-1.397,1.792-1.418c1.082,2.954,1.821,5.243,2.215,6.867l11.076,6.006
		c0.598,0.324,1.237,0.443,1.922,0.359c4.86-5.691,9.709-12.117,14.547-19.277c1.583-2.234,2.776-3.886,3.584-4.949
		c0.523-0.717,1.432-1.977,2.725-3.778c1.14-1.521,1.757-2.368,1.853-2.545C669.363,434.248,669.566,433.788,669.573,433.61z"/>
	<path fill="#FFFFFF" d="M694.147,484.204l16.027-33.082c0.591-1.09,1.463-1.482,2.617-1.175c0.443,0.104,1.51,0.614,3.197,1.529
		c1.934,1.048,3.027,1.802,3.281,2.257c0.388,0.711,0.097,1.963-0.876,3.756l-4.404,8.123c-0.077,0.141-0.577,1.145-1.497,3.012
		c-0.922,1.867-1.439,2.904-1.554,3.116c-1.621,2.989-2.999,5.95-4.134,8.884c0.403,0.766,0.903,1.309,1.502,1.634
		c0.211,0.114,1.185,0.585,2.92,1.413s2.709,1.298,2.921,1.412c2.354,1.277,3.342,2.268,2.961,2.971l-3.604,6.646L694.147,484.204z
		 M721.333,495.874c0.133-1.338-0.257-3.303-1.173-5.893c-0.786-2.245-1.369-3.563-1.748-3.951c-0.104-0.146-0.277-0.287-0.523-0.42
		c-0.211-0.115-0.614-0.275-1.205-0.483c-0.594-0.208-1.031-0.388-1.312-0.54c-1.477-0.801-1.728-1.894-0.747-3.277
		c1.108-2.045,1.889-3.57,2.344-4.576c0.454-1.008,0.635-1.424,0.539-1.246c0.096-0.178,0.539-1.1,1.33-2.768
		s1.244-2.607,1.358-2.82l3.239-5.973c0.152-0.281-0.074-1.646-0.681-4.096c-0.605-2.449-1.194-4.488-1.766-6.121
		c-0.167-0.363-0.918-0.908-2.254-1.633c-5.135-2.783-6.382-3.505-3.741-2.164c-1.602-0.822-3.125-1.285-4.571-1.387l-6.558,13.098
		l-3.203,5.908c-0.096,0.176-0.764,1.6-2.007,4.27c-1.244,2.67-1.914,4.094-2.009,4.27c-2.441,4.501-3.796,7.043-4.065,7.623
		c-0.176,0.406,0.012,2.032,0.563,4.879c0.628,3.117,1.33,4.885,2.104,5.305l19.237,10.091c1.125,0.61,2.181,0.341,3.168-0.808
		c0.26-0.313,0.771-1.174,1.535-2.58C720.543,498.085,721.259,496.515,721.333,495.874z"/>
	<path fill="#FFFFFF" d="M752.964,482.856c-0.704-0.383-1.511-0.888-2.42-1.518c-0.911-0.63-1.488-1.012-1.733-1.145
		c-0.738-0.4-1.387-0.445-1.943-0.132c-0.556,0.313-1.206,1.155-1.949,2.526c-0.84,1.548-1.12,2.736-0.844,3.569
		c0.195,0.562,0.77,1.101,1.719,1.614c0.069,0.038,0.185,0.101,0.343,0.186c0.158,0.086,0.272,0.148,0.343,0.187
		c0.879,0.477,1.398,0.987,1.561,1.528c0.313,0.763,0.09,1.848-0.672,3.254c-0.344,0.633-0.837,1.457-1.479,2.475
		c-2.737-1.166-4.496-1.824-5.278-1.975c-0.782-0.151-1.344,0.09-1.688,0.723c-0.096,0.176-0.3,0.634-0.609,1.375
		c-0.313,0.742-0.63,1.412-0.954,2.01l-4.69,8.649l-8.065-4.374c0.063-0.877,0.364-1.897,0.904-3.063
		c0.516-0.951,1.023-1.929,1.523-2.935c2.634-5.361,4.333-8.746,5.098-10.156l9.969-18.384l19.358,10.497l-3.745,6.906
		C756.022,484.263,754.44,483.657,752.964,482.856z M764.684,485.662c0.104-0.444-0.266-1.987-1.108-4.628
		c-0.844-2.642-1.475-4.076-1.896-4.305l-12.448-6.75c-4.924-2.67-7.758-3.82-8.504-3.451l-17.352,33.636
		c-0.338,1.962-0.105,4.198,0.696,6.708c0.801,2.508,1.834,4.107,3.1,4.794l1.741,0.944c3.692,2.002,6.083,2.752,7.174,2.252
		l4.176-7.701c0.114-0.211,0.314-0.728,0.603-1.551c0.285-0.822,0.544-1.445,0.773-1.867c0.571-1.055,1.287-1.576,2.146-1.566
		c0.376-0.023,1.305,0.322,2.785,1.033c1.394,0.619,2.361,0.848,2.903,0.687c0.152-0.28,0.587-1.001,1.307-2.158
		c0.549-0.931,0.959-1.687,1.23-2.269c0.401-0.827,0.643-1.606,0.722-2.338c0.088-0.498-0.188-1.626-0.828-3.384
		c-0.591-1.595-0.791-2.567-0.601-2.919l0.269,0.009c1.141,0.163,3.782,1.459,7.926,3.888c0.777-0.262,1.548-1.094,2.312-2.5
		C763.409,489.271,764.366,487.084,764.684,485.662z"/>
	<path fill="#FFFFFF" d="M783.963,500.963c-3.396,3.072-5.924,5.638-7.585,7.694c-1.046,1.254-2.053,2.777-3.025,4.571
		c-0.591,1.091-1.302,2.525-2.131,4.306c-1.116,2.396-1.802,3.869-2.052,4.416c-0.558,1.108-1.019,1.791-1.384,2.048
		c-2.181-0.682-3.937-1.384-5.273-2.108c-0.104-0.058-0.561-0.373-1.364-0.945c-0.805-0.572-1.435-0.984-1.892-1.231
		c-0.339,0.454,1.095-2.396,4.298-8.556c2.032-3.917,3.168-6.473,3.408-7.668c0.571-2.564,1.201-6.832,1.892-12.804
		c0.612-5.326,0.957-8.06,1.034-8.202l0.774-1.428c0.596,0.414,1.544,0.929,2.849,1.544c1.722,0.935,2.443,1.325,2.162,1.173
		c1.969,1.067,3.084,1.991,3.345,2.77c0.111,0.379-0.046,1.386-0.476,3.018c-0.567,1.969-0.78,4.037-0.637,6.207
		c0.921-0.272,2.172-1.382,3.749-3.324c1.577-1.943,2.736-3.055,3.48-3.334c0.801,0.115,2.151,0.688,4.05,1.718
		c1.548,0.839,2.595,1.636,3.143,2.387C791.79,493.786,789.002,496.369,783.963,500.963z M794.886,497.057
		c-0.403-2.948-0.904-4.585-1.502-4.909l-7.542-4.09c-0.915-0.496-1.709-0.289-2.384,0.619s-1.322,1.262-1.941,1.063
		c-0.66-2.224-1.104-3.67-1.332-4.34l-10.602-5.75l-0.687,1.267l-3.827,24.681l-5.378,9.916c-1.105,2.04-1.725,3.389-1.854,4.047
		c-0.147,1.193,0.117,2.953,0.792,5.275s1.37,3.746,2.086,4.271c0.262,0.187,1.026,0.625,2.292,1.312l6.225,3.375
		c1.406,0.762,2.596,0.248,3.568-1.546c0.247-0.456,0.534-1.11,0.857-1.958c0.324-0.849,0.542-1.379,0.656-1.59
		c0.229-0.422,0.877-1.617,1.945-3.586c0.781-1.441,1.373-2.532,1.773-3.271l2.488-4.588c0.939-1.902,1.587-3.053,1.941-3.453
		c1.578-1.737,4.159-4.272,7.743-7.609c3.269-3.006,4.92-4.543,4.959-4.613C795.317,501.296,795.224,499.789,794.886,497.057z"/>
	<g>
		<defs>
			<polyline id="SVGID_83_" points="570.311,139.808 537.529,139.808 537.529,146.104 570.311,146.104 570.311,139.808 			"/>
		</defs>
		<clipPath id="SVGID_84_">
			<use xlink:href="#SVGID_83_"  overflow="visible"/>
		</clipPath>
		<g clip-path="url(#SVGID_84_)">
			<defs>
				<rect id="SVGID_85_" x="537.21" y="139.568" width="33.341" height="6.717"/>
			</defs>
			<clipPath id="SVGID_86_">
				<use xlink:href="#SVGID_85_"  overflow="visible"/>
			</clipPath>
			<g transform="matrix(1 0 0 1 0 1.525879e-005)" clip-path="url(#SVGID_86_)">
				
					<image overflow="visible" width="139" height="28" xlink:href="19D81652.jpg"  transform="matrix(0.2399 0 0 0.2399 537.21 139.5679)">
				</image>
			</g>
		</g>
	</g>
	<g>
		<defs>
			<polyline id="SVGID_87_" points="537.529,139.808 403.128,139.808 403.128,146.104 537.529,146.104 537.529,139.808 			"/>
		</defs>
		<clipPath id="SVGID_88_">
			<use xlink:href="#SVGID_87_"  overflow="visible"/>
		</clipPath>
		<g clip-path="url(#SVGID_88_)">
			<defs>
				<rect id="SVGID_89_" x="402.839" y="139.634" width="134.93" height="6.72"/>
			</defs>
			<clipPath id="SVGID_90_">
				<use xlink:href="#SVGID_89_"  overflow="visible"/>
			</clipPath>
			<g transform="matrix(1 0 0 1 -3.051758e-005 -1.525879e-005)" clip-path="url(#SVGID_90_)">
				
					<image overflow="visible" width="562" height="28" xlink:href="19D8164C.jpg"  transform="matrix(0.2401 0 0 0.24 402.8389 139.6338)">
				</image>
			</g>
		</g>
	</g>
	<g>
		<defs>
			<polyline id="SVGID_91_" points="570.311,146.104 537.529,146.104 537.529,273.314 403.128,273.314 403.128,358.579 
				570.311,358.579 570.311,146.104 			"/>
		</defs>
		<clipPath id="SVGID_92_">
			<use xlink:href="#SVGID_91_"  overflow="visible"/>
		</clipPath>
		<g clip-path="url(#SVGID_92_)">
			<defs>
				<rect id="SVGID_93_" x="402.888" y="145.805" width="167.663" height="213.014"/>
			</defs>
			<clipPath id="SVGID_94_">
				<use xlink:href="#SVGID_93_"  overflow="visible"/>
			</clipPath>
			<g transform="matrix(1 0 0 1 0 1.525879e-005)" clip-path="url(#SVGID_94_)">
				
					<image overflow="visible" width="699" height="888" xlink:href="19D8164F.jpg"  transform="matrix(0.2399 0 0 0.2399 402.8882 145.8047)">
				</image>
			</g>
		</g>
	</g>
	<g>
		<defs>
			<polyline id="SVGID_95_" points="537.529,146.104 403.128,146.104 403.128,273.314 537.529,273.314 537.529,146.104 			"/>
		</defs>
		<clipPath id="SVGID_96_">
			<use xlink:href="#SVGID_95_"  overflow="visible"/>
		</clipPath>
		<g clip-path="url(#SVGID_96_)">
			<defs>
				<rect id="SVGID_97_" x="402.839" y="145.874" width="134.93" height="127.68"/>
			</defs>
			<clipPath id="SVGID_98_">
				<use xlink:href="#SVGID_97_"  overflow="visible"/>
			</clipPath>
			<g transform="matrix(1 0 0 1 -3.051758e-005 0)" clip-path="url(#SVGID_98_)">
				
					<image overflow="visible" width="562" height="532" xlink:href="19D81673.jpg"  transform="matrix(0.2401 0 0 0.24 402.8389 145.874)">
				</image>
			</g>
		</g>
	</g>
</g>
<g>
	<g>
		<path opacity="0.1" fill="#E6E6E6" enable-background="new    " d="M105.2,542.499c-40.5-2.799-75.8-20.299-87.3-30.5
			c-11.5-10.299-17.5-31.6-17.5-31.6C0,495.399,0,506.7,0,506.7S4.5,560.1,36.2,581.6c31.7,21.5,56.7,14,56.7,14
			s33.1-8.2,57.8-41.899c4.5-6.201,9.3-14.5,14.1-23.801C164.7,529.899,145.6,545.2,105.2,542.499z"/>
		
			<pattern  id="SVGID_99_" xlink:href="#SVGID_2_" patternTransform="matrix(0.3298 0.0946 0.0946 -0.3298 -19143.3359 -13811.3936)">
		</pattern>
		<path opacity="0.08" fill="url(#SVGID_99_)" enable-background="new    " d="M105.2,542.499c-40.5-2.799-75.8-20.299-87.3-30.5
			c-11.5-10.299-17.5-31.6-17.5-31.6C0,495.399,0,506.7,0,506.7S4.5,560.1,36.2,581.6c31.7,21.5,56.7,14,56.7,14
			s33.1-8.2,57.8-41.899c4.5-6.201,9.3-14.5,14.1-23.801C164.7,529.899,145.6,545.2,105.2,542.499z"/>
		<path opacity="0.22" enable-background="new    " d="M90,590.499c-12.5,1.801-31.3-2-45.1-7.699c-13.6-5.698-24-16.399-24-16.399
			c4.2,5.801,9.3,11.1,15.3,15.2c31.7,21.5,56.7,14,56.7,14s11.7-2.899,26.3-12.301C119.2,583.3,104.6,588.499,90,590.499z"/>
	</g>
	<g>
		<path opacity="0.1" fill="#E6E6E6" enable-background="new    " d="M700.8,542.499c40.5-2.799,75.8-20.299,87.3-30.5
			c11.5-10.199,17.5-31.5,17.5-31.5c0.4,15,0.4,26.301,0.4,26.301s-4.5,53.4-36.2,74.9s-56.7,14-56.7,14s-33.1-8.201-57.8-41.9
			c-4.5-6.199-9.3-14.5-14.1-23.801C641.3,529.899,660.4,545.2,700.8,542.499z"/>
		
			<pattern  id="SVGID_100_" xlink:href="#SVGID_3_" patternTransform="matrix(-0.3298 0.0946 -0.0946 -0.3298 -38464.3047 -13832.0811)">
		</pattern>
		<path opacity="0.08" fill="url(#SVGID_100_)" enable-background="new    " d="M700.8,542.499c40.5-2.799,75.8-20.299,87.3-30.5
			c11.5-10.199,17.5-31.5,17.5-31.5c0.4,15,0.4,26.301,0.4,26.301s-4.5,53.4-36.2,74.9s-56.7,14-56.7,14s-33.1-8.201-57.8-41.9
			c-4.5-6.199-9.3-14.5-14.1-23.801C641.3,529.899,660.4,545.2,700.8,542.499z"/>
		<path opacity="0.22" enable-background="new    " d="M716,590.499c12.5,1.801,31.3-2,45.1-7.699c13.602-5.698,24-16.399,24-16.399
			c-4.198,5.801-9.3,11.1-15.3,15.2c-31.7,21.5-56.7,14-56.7,14s-11.698-2.899-26.3-12.301C686.8,583.3,701.4,588.499,716,590.499z"
			/>
	</g>
	<g>
		<g>
			<path d="M240.5,141.5c6.9,0,12.5,5.6,12.5,12.5v18.3c0,6.9-5.6,12.5-12.5,12.5s-12.5-5.6-12.5-12.5V154
				C228,147.1,233.6,141.5,240.5,141.5 M240.5,139.8c-7.8,0-14.2,6.4-14.2,14.2v18.3c0,7.8,6.4,14.2,14.2,14.2s14.2-6.4,14.2-14.2
				V154C254.7,146.1,248.3,139.8,240.5,139.8L240.5,139.8z"/>
			<path fill="#10111A" d="M240.5,141.5c-6.9,0-12.5,5.6-12.5,12.5v18.3c0,6.9,5.6,12.5,12.5,12.5s12.5-5.6,12.5-12.5V154
				C253,147.1,247.4,141.5,240.5,141.5z"/>
		</g>
	</g>
	<g>
		<g>
			<path d="M565.5,141.5c6.9,0,12.5,5.6,12.5,12.5v18.3c0,6.9-5.6,12.5-12.5,12.5l0,0c-6.9,0-12.5-5.6-12.5-12.5V154
				C553,147.1,558.6,141.5,565.5,141.5L565.5,141.5 M565.5,139.8c-7.8,0-14.2,6.4-14.2,14.2v18.3c0,7.8,6.4,14.2,14.2,14.2
				s14.2-6.4,14.2-14.2V154C579.7,146.1,573.3,139.8,565.5,139.8L565.5,139.8z"/>
			<path fill="#10111A" d="M565.5,141.5c-6.9,0-12.5,5.6-12.5,12.5v18.3c0,6.9,5.6,12.5,12.5,12.5s12.5-5.6,12.5-12.5V154
				C578,147.1,572.4,141.5,565.5,141.5z"/>
		</g>
	</g>
	<g>
		<g>
			<path fill="#1A1A1A" d="M141.2,245.2c1.4-2,1.2-2.9,1.2-2.9s0.2-0.899-1.2-2.899c-1.4-2-15-13.601-15.7-14s-28.5-2.2-31.4,1.3
				s-2.6,15.6-2.6,15.6S91.2,254.4,94.1,257.9s30.7,1.7,31.4,1.3C126.2,258.8,139.8,247.2,141.2,245.2z"/>
			<path opacity="0.25" enable-background="new    " d="M141.2,245.2c1.4-2,1.2-2.9,1.2-2.9s0.2-0.899-1.2-2.899
				c-0.9-1.3-6.9-6.601-11.2-10.3c-2.1,3.9-3.4,8.4-3.4,13.199c0,4.801,1.2,9.301,3.4,13.201C134.3,251.799,140.3,246.5,141.2,245.2
				z"/>
		</g>
		<g>
			<path fill="#1A1A1A" d="M151,229.6c2,1.4,2.9,1.199,2.9,1.199s0.9,0.201,2.9-1.199s13.6-15,14-15.7c0.4-0.7,2.2-28.5-1.3-31.4
				s-15.6-2.6-15.6-2.6s-12.1-0.3-15.6,2.6s-1.7,30.7-1.3,31.4C137.5,214.6,149,228.2,151,229.6z"/>
			<path opacity="0.25" enable-background="new    " d="M151,229.6c2,1.4,2.9,1.199,2.9,1.199s0.9,0.201,2.9-1.199
				c1.3-0.9,6.6-6.9,10.3-11.2c-3.9-2.101-8.4-3.399-13.2-3.399c-4.8,0-9.3,1.199-13.2,3.399C144.5,222.7,149.7,228.7,151,229.6z"/>
		</g>
		<g>
			<path fill="#1A1A1A" d="M213.7,226.799c-2.9-3.5-30.7-1.699-31.4-1.299c-0.7,0.399-14.3,12-15.7,14s-1.2,2.899-1.2,2.899
				s-0.2,0.899,1.2,2.899s15,13.601,15.7,14c0.7,0.4,28.5,2.201,31.4-1.299c2.899-3.5,2.6-15.601,2.6-15.601
				S216.6,230.299,213.7,226.799z"/>
			<path opacity="0.25" enable-background="new    " d="M177.9,229.2c-4.3,3.7-10.3,9-11.2,10.301c-1.4,2-1.2,2.899-1.2,2.899
				s-0.2,0.899,1.2,2.899c0.9,1.301,6.9,6.601,11.2,10.301c2.1-3.9,3.4-8.4,3.4-13.2C181.3,237.6,180,233.1,177.9,229.2z"/>
		</g>
		<g>
			<path fill="#1A1A1A" d="M156.8,255.1c-2-1.4-2.9-1.2-2.9-1.2s-0.9-0.2-2.9,1.2s-13.6,15-14,15.699
				c-0.4,0.701-2.2,28.5,1.3,31.401c3.5,2.9,15.6,2.6,15.6,2.6s12.1,0.301,15.6-2.6c3.5-2.901,1.7-30.7,1.3-31.401
				C170.4,270,158.8,256.5,156.8,255.1z"/>
			<path opacity="0.25" enable-background="new    " d="M156.8,255.1c-2-1.4-2.9-1.2-2.9-1.2s-0.9-0.2-2.9,1.2
				c-1.3,0.9-6.6,6.9-10.3,11.199c3.9,2.101,8.4,3.4,13.2,3.4c4.8,0,9.3-1.199,13.2-3.4C163.4,262,158.1,256,156.8,255.1z"/>
		</g>
	</g>
</g>
<g>
	<g>
		<circle cx="402.9" cy="314.399" r="4.1"/>
		<circle cx="402.9" cy="293.5" r="4.1"/>
		<circle cx="396" cy="303.7" r="4.1"/>
		<circle cx="381.301" cy="303.7" r="4.1"/>
		<circle cx="388.601" cy="314.399" r="4.1"/>
		<circle cx="388.601" cy="293.5" r="4.1"/>
		<circle cx="374.301" cy="293.5" r="4.1"/>
	</g>
	<g>
		<circle cx="409.801" cy="303.7" r="4.1"/>
		<circle cx="424.5" cy="303.7" r="4.1"/>
		<circle cx="417.101" cy="314.399" r="4.1"/>
		<circle cx="417.101" cy="293.5" r="4.1"/>
		<circle cx="431.5" cy="293.5" r="4.1"/>
	</g>
</g>
<g opacity="0.12">
	<path fill="#FFFFFF" d="M402.9,317.499c-2.101,0-3.801-1.6-4.101-3.6c0,0.2-0.101,0.301-0.101,0.5c0,2.301,1.8,4.1,4.101,4.1
		c2.3,0,4.101-1.799,4.101-4.1c0-0.199,0-0.3-0.101-0.5C406.7,315.899,405,317.499,402.9,317.499z"/>
	<path fill="#FFFFFF" d="M402.9,297.6c2.3,0,4.1-1.801,4.1-4.1c0-0.201,0-0.301-0.1-0.5c-0.2,2-2,3.6-4.101,3.6
		s-3.801-1.6-4.101-3.6c0,0.199-0.101,0.299-0.101,0.5C398.801,295.7,400.601,297.6,402.9,297.6z"/>
	<path fill="#FFFFFF" d="M400.101,303.7c0-0.201,0-0.301-0.101-0.5c-0.199,2-2,3.6-4.1,3.6s-3.8-1.6-4.1-3.6
		c0,0.199-0.101,0.299-0.101,0.5c0,2.299,1.8,4.1,4.101,4.1C398.2,307.8,400.101,305.999,400.101,303.7z"/>
	<path fill="#FFFFFF" d="M385.301,303.2c-0.2,2-2,3.6-4.101,3.6c-2.1,0-3.8-1.6-4.1-3.6c0,0.199-0.101,0.299-0.101,0.5
		c0,2.299,1.801,4.1,4.101,4.1c2.3,0,4.1-1.801,4.1-4.1C385.4,303.499,385.4,303.399,385.301,303.2z"/>
	<path fill="#FFFFFF" d="M388.7,317.499c-2.1,0-3.8-1.6-4.1-3.6c0,0.2-0.101,0.301-0.101,0.5c0,2.301,1.801,4.1,4.101,4.1
		c2.3,0,4.1-1.799,4.1-4.1c0-0.199,0-0.3-0.1-0.5C392.5,315.899,390.801,317.499,388.7,317.499z"/>
	<path fill="#FFFFFF" d="M388.7,297.6c2.3,0,4.101-1.801,4.101-4.1c0-0.201,0-0.301-0.101-0.5c-0.2,2-2,3.6-4.1,3.6
		c-2.101,0-3.8-1.6-4.101-3.6c0,0.199-0.1,0.299-0.1,0.5C384.5,295.7,386.4,297.6,388.7,297.6z"/>
	<path fill="#FFFFFF" d="M378.5,293.5c0-0.201,0-0.301-0.1-0.5c-0.2,2-2,3.6-4.1,3.6c-2.101,0-3.801-1.6-4.101-3.6
		c0,0.199-0.1,0.299-0.1,0.5c0,2.299,1.8,4.1,4.1,4.1C376.601,297.6,378.5,295.7,378.5,293.5z"/>
	<path fill="#FFFFFF" d="M413.9,303.2c-0.2,2-2,3.6-4.101,3.6s-3.801-1.6-4.101-3.6c0,0.199-0.101,0.299-0.101,0.5
		c0,2.299,1.801,4.1,4.101,4.1s4.101-1.801,4.101-4.1C414,303.499,413.9,303.399,413.9,303.2z"/>
	<path fill="#FFFFFF" d="M424.5,306.8c-2.1,0-3.8-1.6-4.1-3.6c0,0.199-0.101,0.299-0.101,0.5c0,2.299,1.8,4.1,4.101,4.1
		c2.3,0,4.1-1.801,4.1-4.1c0-0.201,0-0.301-0.1-0.5C428.4,305.3,426.601,306.8,424.5,306.8z"/>
	<path fill="#FFFFFF" d="M417.2,317.499c-2.101,0-3.8-1.6-4.101-3.6c0,0.2-0.101,0.301-0.101,0.5c0,2.301,1.801,4.1,4.101,4.1
		c2.301,0,4.101-1.799,4.101-4.1c0-0.199,0-0.3-0.101-0.5C421,315.899,419.301,317.499,417.2,317.499z"/>
	<path fill="#FFFFFF" d="M417.2,297.6c2.3,0,4.101-1.801,4.101-4.1c0-0.201,0-0.301-0.101-0.5c-0.2,2-2,3.6-4.101,3.6
		s-3.8-1.6-4.101-3.6c0,0.199-0.1,0.299-0.1,0.5C413,295.7,414.9,297.6,417.2,297.6z"/>
	<path fill="#FFFFFF" d="M431.5,296.6c-2.1,0-3.8-1.6-4.1-3.6c0,0.199-0.101,0.299-0.101,0.5c0,2.299,1.8,4.1,4.101,4.1
		c2.3,0,4.1-1.801,4.1-4.1c0-0.201,0-0.301-0.1-0.5C435.301,295,433.601,296.6,431.5,296.6z"/>
</g>
<path fill="#0B0B0F" d="M436.5,418.999h-67.899c-2.8,0-4.601,0.602-4.601-2.199l0,0c0-2.801,2.301-5,5-5h67.9c2.8,0,5,2.301,5,5l0,0
	C442,419.499,439.301,418.999,436.5,418.999z"/>
<path d="M408.2,416.8h-36.5c-0.5,0-0.899-0.399-0.899-0.899l0,0c0-1.101,0.899-2,2-2H407c1.101,0,2,0.899,2,2l0,0
	C409.101,416.399,408.7,416.8,408.2,416.8z"/>
<path d="M430.4,417.601h-4.2c-0.899,0-1.7-0.801-1.7-1.7l0,0c0-1.601,1.301-2.8,2.801-2.8h1.899c1.601,0,2.8,1.3,2.8,2.8l0,0
	C432.101,416.899,431.4,417.601,430.4,417.601z"/>
<g>
	<g>
		<g>
			<g>
				<path fill="#1A1A1A" d="M709.801,269c-14.5,0-26.301-11.801-26.301-26.301s11.801-26.3,26.301-26.3s26.3,11.8,26.3,26.3
					S724.301,269,709.801,269z"/>
				<path fill="#0F0F0F" d="M709.801,217.5c13.899,0,25.3,11.299,25.3,25.299S723.801,268,709.801,268S684.5,256.7,684.5,242.7
					S695.9,217.5,709.801,217.5 M709.801,215.5c-15,0-27.301,12.199-27.301,27.299c0,15.101,12.2,27.301,27.301,27.301
					s27.3-12.2,27.3-27.301C737.101,227.7,724.801,215.5,709.801,215.5L709.801,215.5z"/>
			</g>
			<path fill="#FF6666" d="M709.801,223.9c-10.399,0-18.899,8.5-18.899,18.899c0,10.4,8.5,18.9,18.899,18.9s18.899-8.5,18.899-18.9
				C728.7,232.4,720.301,223.9,709.801,223.9z M709.801,258.799c-8.899,0-16-7.199-16-16c0-8.899,7.199-16,16-16
				c8.8,0,16,7.201,16,16C725.9,251.7,718.7,258.799,709.801,258.799z"/>
		</g>
		<g>
			<g>
				<path fill="#1A1A1A" d="M652.2,326.601c-14.5,0-26.3-11.801-26.3-26.301s11.8-26.299,26.3-26.299s26.3,11.799,26.3,26.299
					S666.7,326.601,652.2,326.601z"/>
				<path fill="#0F0F0F" d="M652.2,275.1c13.899,0,25.3,11.3,25.3,25.299c0,14-11.3,25.301-25.3,25.301s-25.3-11.301-25.3-25.301
					C626.9,286.4,638.301,275.1,652.2,275.1 M652.2,273.1c-15,0-27.3,12.199-27.3,27.299c0,15,12.199,27.301,27.3,27.301
					s27.3-12.201,27.3-27.301C679.5,285.4,667.301,273.1,652.2,273.1L652.2,273.1z"/>
			</g>
			<polygon fill="#7CB2E8" points="666.601,288 664.601,286 652.2,298.399 639.9,286 637.9,288 650.2,300.399 637.9,312.7 
				639.9,314.7 652.2,302.399 664.601,314.7 666.601,312.7 654.2,300.399 			"/>
		</g>
		<g>
			<g>
				<path fill="#1A1A1A" d="M594.7,269c-14.5,0-26.3-11.801-26.3-26.301s11.8-26.3,26.3-26.3s26.3,11.8,26.3,26.3
					S609.101,269,594.7,269z"/>
				<path fill="#0F0F0F" d="M594.601,217.5c13.899,0,25.301,11.299,25.301,25.299S608.601,268,594.601,268s-25.3-11.301-25.3-25.301
					S580.7,217.5,594.601,217.5 M594.601,215.5c-15,0-27.3,12.199-27.3,27.299c0,15.101,12.199,27.301,27.3,27.301
					s27.301-12.2,27.301-27.301C621.9,227.7,609.7,215.5,594.601,215.5L594.601,215.5z"/>
			</g>
			<path fill="#FF69F8" d="M606.2,228.4h-23h-2.8v2.8v23v2.8h2.8h23h2.8v-2.8v-23v-2.8H606.2L606.2,228.4z M606.2,254.299h-23v-23
				h23V254.299z"/>
		</g>
		<g>
			<g>
				<path fill="#1A1A1A" d="M652.2,211.5c-14.5,0-26.3-11.801-26.3-26.301s11.8-26.3,26.3-26.3s26.3,11.8,26.3,26.3
					S666.7,211.5,652.2,211.5z"/>
				<path fill="#0F0F0F" d="M652.2,160c13.899,0,25.3,11.3,25.3,25.3s-11.3,25.3-25.3,25.3s-25.3-11.3-25.3-25.3
					S638.301,160,652.2,160 M652.2,158c-15,0-27.3,12.2-27.3,27.3c0,15.1,12.199,27.3,27.3,27.3s27.3-12.2,27.3-27.3
					C679.5,170.2,667.301,158,652.2,158L652.2,158z"/>
			</g>
			<path fill="#40E2A0" d="M668.2,193.2l-16-27.6l-16,27.6L634.6,196h3.301h14.3h14.3h3.301L668.2,193.2z M652.2,193.2h-12.7
				l12.7-21.9l12.7,21.9H652.2z"/>
		</g>
	</g>
</g>
<g>
	<circle fill="#050505" stroke="#000000" stroke-width="2" stroke-miterlimit="10" cx="402.9" cy="360" r="20.2"/>
	<g>
		<path fill="#F2F2F2" d="M404,366.601V363.8v-3.5v-6.5c0-0.5,0.101-0.801,0.301-1c0.101-0.199,0.399-0.301,0.699-0.199
			c0.601,0.199,0.9,0.699,0.9,1.699v6.9c0.8,0.399,1.5,0.5,2.1,0.5c0.601,0,1.2-0.201,1.601-0.5c1-0.701,1.5-1.9,1.5-3.701
			c0-1.898-0.399-3.398-1.199-4.299c-0.801-1-2.101-1.9-4.101-2.601c-1.301-0.399-2.5-0.801-3.601-1.102
			c-1.101-0.299-2-0.5-2.899-0.699v12.199l0,0v2.701l0,0v1.699l0,0v2.5l0,0v1.5l4.699,1.5v-3.601l0,0V366.601z"/>
		<path fill="#F2F2F2" d="M398.9,365.601l-1.7,0.601l-0.899,0.399l-1.601,0.3l-1.5-0.199c-0.3-0.201-0.399-0.4-0.2-0.601
			c0.101-0.102,0.2-0.102,0.301-0.2c0.1-0.101,0.3-0.101,0.399-0.199l1.101-0.4l4.101-1.5v-2.699l-1.7,0.5l-5.5,2l-1,0.398
			c-1.5,0.602-2.2,1.201-2.2,1.801c0.101,0.801,1,1.5,2.7,1.9c0.7,0.199,1.4,0.299,2.101,0.399c0.699,0.101,1.399,0.101,2.199,0.101
			c1,0,2.101-0.101,3.301-0.301v-2.3H398.9z"/>
		<path fill="#F2F2F2" d="M414.7,363.3c-0.899-0.301-1.7-0.5-2.5-0.6c-0.8-0.101-1.7-0.201-2.5-0.101c-0.899,0-1.899,0.199-2.8,0.3
			c-0.801,0.2-1.7,0.399-2.601,0.801v2.799l3.899-1.398l1.601-0.5l1.101-0.301h1.399c0.3,0.101,0.601,0.199,0.699,0.4
			c0,0.199-0.199,0.399-0.8,0.6l-1.399,0.5l-6.5,2.4v2.699l3.5-1.3l6.399-2.301l0.7-0.399c1.5-0.5,2.199-1.199,2.199-1.9
			C417.101,364.399,416.301,363.8,414.7,363.3z"/>
	</g>
</g>
<g>
	<g>
		<g>
			<path fill="#0A0A0A" d="M697.101,107.9c0-0.8-0.399-1.5-1.101-1.9c-4.5-2.9-23.399-13.6-51.5-13.6c-26.899,0-41.1,5.9-45.1,8
				c-0.801,0.4-1.2,1.2-1.2,2c0,0,9.8-2.9,47.5-2.9S697.101,107.9,697.101,107.9z"/>
			<path fill="#121212" d="M697,114.8L697,114.8v-6.9c0,0-13.699-8.4-51.399-8.4c-37.8,0-47.5,2.9-47.5,2.9v11l0,0
				c7.7-1.3,21.2-2.6,44.101-2.6C670.7,110.9,688.101,113.2,697,114.8z"/>
		</g>
	</g>
	<g>
		<g>
			<path fill="#0A0A0A" d="M108.7,107.9c0-0.8,0.4-1.5,1.1-1.9c4.5-2.9,23.4-13.6,51.5-13.6c26.9,0,41.1,5.9,45.1,8
				c0.8,0.4,1.2,1.2,1.2,2c0,0-9.8-2.9-47.5-2.9C122.4,99.5,108.7,107.9,108.7,107.9z"/>
			<path fill="#121212" d="M108.8,114.8L108.8,114.8v-6.9c0,0,13.7-8.4,51.4-8.4c37.8,0,47.5,2.9,47.5,2.9v11l0,0
				c-7.7-1.3-21.2-2.6-44.1-2.6C135.101,110.9,117.7,113.2,108.8,114.8z"/>
		</g>
	</g>
</g>
<g>
	<g>
		<g>
			<g>
				<path fill="#121212" d="M697.101,88.8c0,0-32.699-3.2-50.601-3.2c-17.899,0-48.399,2.4-48.399,2.4s3.101-44.7,4.801-52
					c1.6-7.3,7.699-21.3,16.899-27.9C629,1.5,631.7-2,642.5-2c10.801,0,25.4,6.4,34.601,21.4C686.4,34.4,697.101,88.8,697.101,88.8z
					"/>
				<path fill="#0A0A0A" d="M598.601,81.2c0,0,26.101-4.4,49-4.4c22.801,0,47.899,4.4,47.899,4.4c1,4.7,1.601,7.6,1.601,7.6
					s-32.699-3.2-50.601-3.2c-17.899,0-48.399,2.4-48.399,2.4S598.301,85.3,598.601,81.2z"/>
			</g>
			<g opacity="0.08">
				<g>
					<path fill="#FFFFFF" d="M648.601,63.7c-2.101,1.7-3.199,2.6-3.199,2.6c-1.2,1.2-1.9,2.7-2,4.5h9.8v-2.6h-6.3
						c0.3-0.5,1-1.2,2.1-1.9c1.4-0.9,2.301-1.6,2.7-2.1c0.899-1,1.3-2.1,1.3-3.3c0-1.4-0.5-2.5-1.399-3.3
						c-0.899-0.8-2.101-1.2-3.5-1.2c-3.101,0-4.699,1.7-4.699,5h2.699c0-1.8,0.7-2.7,2.101-2.7c1.3,0,2,0.7,2,2.1
						C650.4,61.9,649.801,62.8,648.601,63.7z"/>
				</g>
				<path fill="#FFFFFF" d="M631,65.2h3c1.5,0,2.301,0.6,2.4,1.9c0.1,1.2,0.199,2.5,0.3,3.8h3.3v-0.4c-0.5-0.2-0.699-0.7-0.699-1.5
					c0-0.2,0-0.4,0.101-0.8v-0.7c0-1.7-0.601-2.9-1.801-3.5c1.399-0.5,2.2-1.6,2.2-3.4c0-1.3-0.399-2.3-1.301-3
					c-0.8-0.7-1.899-1-3.199-1H628v14.3h3V65.2z M631,59h3.7c1.399,0,2.101,0.6,2.101,1.9c0,1.3-0.801,1.9-2.301,1.9H631V59z"/>
			</g>
		</g>
	</g>
	<g>
		<g>
			<g>
				<path fill="#121212" d="M108.7,88.8c0,0,32.7-3.2,50.6-3.2c17.9,0,48.3,2.4,48.3,2.4s-3.1-44.7-4.8-52
					c-1.6-7.3-7.7-21.3-16.9-27.9C176.8,1.4,174.101-2,163.3-2c-10.8,0-25.4,6.4-34.6,21.4C119.5,34.4,108.7,88.8,108.7,88.8z"/>
				<path fill="#0A0A0A" d="M207.2,81.2c0,0-26.1-4.4-49-4.4c-22.8,0-47.9,4.4-47.9,4.4c-1,4.7-1.6,7.6-1.6,7.6s32.7-3.2,50.6-3.2
					c17.9,0,48.3,2.4,48.3,2.4S207.5,85.3,207.2,81.2z"/>
			</g>
			<g opacity="0.08">
				<g>
					<path fill="#FFFFFF" d="M173.2,63.7c-2.1,1.7-3.2,2.6-3.2,2.6c-1.2,1.2-1.9,2.7-2,4.5h9.8v-2.6h-6.2c0.3-0.5,1-1.2,2.1-1.9
						c1.4-0.9,2.3-1.6,2.7-2.1c0.9-1,1.3-2.1,1.3-3.3c0-1.4-0.5-2.5-1.4-3.3c-0.9-0.8-2.1-1.2-3.5-1.2c-3.1,0-4.7,1.7-4.7,5h2.7
						c0-1.8,0.7-2.7,2.1-2.7c1.3,0,2,0.7,2,2.1C175,61.9,174.4,62.8,173.2,63.7z"/>
				</g>
				<polygon fill="#FFFFFF" points="164.7,68.2 157.7,68.2 157.7,56.5 154.601,56.5 154.601,70.8 164.7,70.8 				"/>
			</g>
		</g>
	</g>
</g>
<g>
	<g>
		<path fill="#CCCCCC" d="M547.5,132.6c0,2.1-1.5,3.8-4.1,3.8c-2.601,0-4.101-1.7-4.101-3.8c0-2,1.5-3.8,4.101-3.8
			C546,128.8,547.5,130.5,547.5,132.6z M540.801,132.6c0,1.4,0.8,2.7,2.601,2.7c1.8,0,2.6-1.4,2.6-2.7c0-1.4-0.8-2.7-2.6-2.7
			C541.601,129.9,540.801,131.2,540.801,132.6z"/>
		<path fill="#CCCCCC" d="M548.801,129h3.8c2.399,0,2.899,1.3,2.899,2.2c0,0.9-0.5,2.2-2.899,2.2h-2.3v2.8h-1.5V129z M550.301,132.4
			h2.199c0.7,0,1.5-0.3,1.5-1.2c0-0.9-0.699-1.2-1.5-1.2h-2.199V132.4z"/>
		<path fill="#CCCCCC" d="M556,129h6.9v1.1h-2.7v6.1h-1.5V130H556V129z"/>
		<path fill="#CCCCCC" d="M564,129h1.5v7.2H564V129z"/>
		<path fill="#CCCCCC" d="M575,132.6c0,2.1-1.5,3.8-4.1,3.8c-2.601,0-4.101-1.7-4.101-3.8c0-2,1.5-3.8,4.101-3.8
			C573.5,128.8,575,130.5,575,132.6z M568.301,132.6c0,1.4,0.8,2.7,2.601,2.7c1.8,0,2.6-1.4,2.6-2.7c0-1.4-0.8-2.7-2.6-2.7
			C569.101,129.9,568.301,131.2,568.301,132.6z"/>
		<path fill="#CCCCCC" d="M576.4,129h1.6l3.9,5.3l0,0V129h1.399v7.2h-1.6l-3.899-5.3l0,0v5.3h-1.399L576.4,129L576.4,129z"/>
		<path fill="#CCCCCC" d="M586.101,133.8c0,1.1,1,1.5,2.2,1.5c1.3,0,1.8-0.6,1.8-1.1c0-0.6-0.399-0.8-0.699-0.9
			c-0.601-0.2-1.4-0.3-2.601-0.6c-1.5-0.3-1.899-1.1-1.899-1.8c0-1.5,1.6-2.1,3.1-2.1c1.801,0,3.301,0.8,3.301,2.3h-1.5
			c-0.101-0.9-0.801-1.3-1.801-1.3c-0.699,0-1.6,0.2-1.6,0.9c0,0.5,0.399,0.8,1,0.9c0.1,0,2,0.4,2.5,0.6
			c1.1,0.3,1.699,1.1,1.699,1.8c0,1.6-1.699,2.3-3.399,2.3c-2,0-3.5-0.8-3.601-2.6h1.5V133.8z"/>
	</g>
	<g>
		<path fill="#CCCCCC" d="M222.101,133.8c0,1.1,1,1.5,2.2,1.5c1.3,0,1.8-0.6,1.8-1.1c0-0.6-0.4-0.8-0.7-0.9
			c-0.6-0.2-1.4-0.3-2.6-0.6c-1.5-0.3-1.9-1.1-1.9-1.8c0-1.5,1.6-2.1,3.1-2.1c1.801,0,3.301,0.8,3.301,2.3h-1.5
			c-0.101-0.9-0.801-1.3-1.801-1.3c-0.699,0-1.6,0.2-1.6,0.9c0,0.5,0.4,0.8,1,0.9c0.1,0,2,0.4,2.5,0.6c1.1,0.3,1.7,1.1,1.7,1.8
			c0,1.6-1.7,2.3-3.4,2.3c-2,0-3.5-0.8-3.6-2.6h1.5V133.8z"/>
		<path fill="#CCCCCC" d="M228.801,129h1.5v2.9h3.899V129h1.5v7.2h-1.5V133h-3.899v3.2h-1.5V129z"/>
		<path fill="#CCCCCC" d="M239.801,129h1.6l3.3,7.2h-1.6l-0.8-1.9h-3.4l-0.8,1.9h-1.5L239.801,129z M239.301,133.3h2.6l-1.3-3.1l0,0
			L239.301,133.3z"/>
		<path fill="#CCCCCC" d="M245.5,129h4.101c1.899,0,2.8,0.7,2.8,1.9c0,1.4-1.1,1.7-1.4,1.8l0,0c0.5,0.1,1.301,0.4,1.301,1.5
			c0,0.8,0.1,1.6,0.5,1.9H251.2c-0.2-0.3-0.2-0.7-0.2-1.1c0-1.3-0.3-1.9-1.699-1.9h-2.2v3h-1.5V129H245.5z M247,132.2h2.5
			c1,0,1.5-0.4,1.5-1.1c0-0.9-0.699-1.1-1.5-1.1h-2.399v2.2H247L247,132.2z"/>
		<path fill="#CCCCCC" d="M254,129h6.2v1.1h-4.7v1.9h4.301v1H255.5v2.1h4.7v1.1H254V129L254,129z"/>
	</g>
</g>
</svg>
