<?xml version="1.0" encoding="utf-8"?>
<!-- Generator: Adobe Illustrator 16.0.0, SVG Export Plug-In . SVG Version: 6.00 Build 0)  -->
<!DOCTYPE svg PUBLIC "-//W3C//DTD SVG 1.1//EN" "http://www.w3.org/Graphics/SVG/1.1/DTD/svg11.dtd">
<svg version="1.1" id="Layer_1" xmlns="http://www.w3.org/2000/svg" xmlns:xlink="http://www.w3.org/1999/xlink" x="0px" y="0px"
	 width="806px" height="598.9px" viewBox="0 0 806 598.9" enable-background="new 0 0 806 598.9" xml:space="preserve">
<pattern  x="-21.5" y="623.95" width="71" height="71" patternUnits="userSpaceOnUse" id="SVGID_1_" viewBox="0 -71 71 71" overflow="visible">
	<g>
		<polygon fill="none" points="0,0 71,0 71,-71 0,-71 		"/>
		<g>
			<polygon fill="none" points="0,-71 71,-71 71,0 0,0 			"/>
			<g>
				<polygon fill="none" points="0,0 71,0 71,-71 0,-71 				"/>
				<g>
					<polygon fill="none" points="0,0 71,0 71,-71 0,-71 					"/>
					<path fill="#B3B3B3" d="M41.8-35.5c0-3.5-2.8-6.3-6.3-6.3s-6.3,2.8-6.3,6.3s2.8,6.3,6.3,6.3S41.8-32,41.8-35.5z"/>
				</g>
			</g>
		</g>
	</g>
</pattern>
<pattern  x="-21.5" y="623.95" width="40" height="103" patternUnits="userSpaceOnUse" id="SVGID_2_" viewBox="0 -231.7 40 103" overflow="visible">
	<g>
		<polygon fill="none" points="0,-128.7 40,-128.7 40,-231.7 0,-231.7 		"/>
		<g>
			<polygon fill="none" points="0,-231.7 40,-231.7 40,-128.7 0,-128.7 			"/>
			<g>
				<polygon fill="none" points="0,-128.7 40,-128.7 40,-231.7 0,-231.7 				"/>
				<g>
					<polygon fill="none" points="0,-128.7 40,-128.7 40,-231.7 0,-231.7 					"/>
					<polygon points="34.5,-360.5 37.5,-360.5 37.5,-206 34.5,-206 					"/>
					<polygon points="26.5,-360.5 29.5,-360.5 29.5,-206 26.5,-206 					"/>
					<polygon points="18.5,-360.5 21.5,-360.5 21.5,-206 18.5,-206 					"/>
					<polygon points="10.5,-360.5 13.5,-360.5 13.5,-206 10.5,-206 					"/>
					<polygon points="2.5,-360.5 5.5,-360.5 5.5,-206 2.5,-206 					"/>
					<polygon points="34.5,-257.5 37.5,-257.5 37.5,-103 34.5,-103 					"/>
					<polygon points="26.5,-257.5 29.5,-257.5 29.5,-103 26.5,-103 					"/>
					<polygon points="18.5,-257.5 21.5,-257.5 21.5,-103 18.5,-103 					"/>
					<polygon points="10.5,-257.5 13.5,-257.5 13.5,-103 10.5,-103 					"/>
					<polygon points="2.5,-257.5 5.5,-257.5 5.5,-103 2.5,-103 					"/>
					<polygon points="34.5,-154.5 37.5,-154.5 37.5,0 34.5,0 					"/>
					<polygon points="26.5,-154.5 29.5,-154.5 29.5,0 26.5,0 					"/>
					<polygon points="18.5,-154.5 21.5,-154.5 21.5,0 18.5,0 					"/>
					<polygon points="10.5,-154.5 13.5,-154.5 13.5,0 10.5,0 					"/>
					<polygon points="2.5,-154.5 5.5,-154.5 5.5,0 2.5,0 					"/>
				</g>
			</g>
		</g>
	</g>
</pattern>
<pattern  x="-21.5" y="623.95" width="40" height="103" patternUnits="userSpaceOnUse" id="SVGID_3_" viewBox="0 -231.7 40 103" overflow="visible">
	<g>
		<polygon fill="none" points="0,-128.7 40,-128.7 40,-231.7 0,-231.7 		"/>
		<g>
			<polygon fill="none" points="0,-231.7 40,-231.7 40,-128.7 0,-128.7 			"/>
			<g>
				<polygon fill="none" points="0,-128.7 40,-128.7 40,-231.7 0,-231.7 				"/>
				<g>
					<polygon fill="none" points="0,-128.7 40,-128.7 40,-231.7 0,-231.7 					"/>
					<polygon points="34.5,-360.5 37.5,-360.5 37.5,-206 34.5,-206 					"/>
					<polygon points="26.5,-360.5 29.5,-360.5 29.5,-206 26.5,-206 					"/>
					<polygon points="18.5,-360.5 21.5,-360.5 21.5,-206 18.5,-206 					"/>
					<polygon points="10.5,-360.5 13.5,-360.5 13.5,-206 10.5,-206 					"/>
					<polygon points="2.5,-360.5 5.5,-360.5 5.5,-206 2.5,-206 					"/>
					<polygon points="34.5,-257.5 37.5,-257.5 37.5,-103 34.5,-103 					"/>
					<polygon points="26.5,-257.5 29.5,-257.5 29.5,-103 26.5,-103 					"/>
					<polygon points="18.5,-257.5 21.5,-257.5 21.5,-103 18.5,-103 					"/>
					<polygon points="10.5,-257.5 13.5,-257.5 13.5,-103 10.5,-103 					"/>
					<polygon points="2.5,-257.5 5.5,-257.5 5.5,-103 2.5,-103 					"/>
					<polygon points="34.5,-154.5 37.5,-154.5 37.5,0 34.5,0 					"/>
					<polygon points="26.5,-154.5 29.5,-154.5 29.5,0 26.5,0 					"/>
					<polygon points="18.5,-154.5 21.5,-154.5 21.5,0 18.5,0 					"/>
					<polygon points="10.5,-154.5 13.5,-154.5 13.5,0 10.5,0 					"/>
					<polygon points="2.5,-154.5 5.5,-154.5 5.5,0 2.5,0 					"/>
				</g>
			</g>
		</g>
	</g>
</pattern>
<g>
	<g>
		<path fill="#080808" d="M530.301,122.3c0-1-0.801-1.9-1.899-1.9H402.9l0,0H277.3c-1,0-1.9,0.8-1.9,1.9v6v123.2
			c0,8.6,7,15.6,15.6,15.6h111.9l0,0H514.8c8.601,0,15.601-7,15.601-15.6V128.4L530.301,122.3z"/>
		<g opacity="0.12">
			
				<pattern  id="SVGID_4_" xlink:href="#SVGID_1_" patternTransform="matrix(0.1017 0 0 -0.1017 -25751.7402 -4294.7305)"  opacity="0.12">
			</pattern>
			<path fill="url(#SVGID_4_)" d="M275.4,251.5c0,8.6,7,15.6,15.6,15.6h111.9l0,0H514.8c8.601,0,15.601-7,15.601-15.6V145h-255
				V251.5L275.4,251.5z"/>
		</g>
	</g>
</g>
<image overflow="visible" width="3360" height="2106" xlink:href="687B7633.png"  transform="matrix(0.24 0 0 0.24 0 111)">
</image>
<polygon fill="none" points="-0.815,107.304 -0.815,140.392 -0.815,141.352 -0.815,505.805 -0.331,505.805 -0.331,595.519 
	806.731,595.519 806.731,505.805 807.216,505.805 807.216,141.352 807.216,140.392 807.216,107.304 "/>
<g>
	<g>
		<path opacity="0.1" fill="#E6E6E6" enable-background="new    " d="M105.2,542.499c-40.5-2.799-75.8-20.299-87.3-30.5
			c-11.5-10.299-17.5-31.6-17.5-31.6C0,495.399,0,506.7,0,506.7S4.5,560.1,36.2,581.6c31.7,21.5,56.7,14,56.7,14
			s33.1-8.2,57.8-41.899c4.5-6.201,9.3-14.5,14.1-23.801C164.7,529.899,145.6,545.2,105.2,542.499z"/>
		
			<pattern  id="SVGID_5_" xlink:href="#SVGID_2_" patternTransform="matrix(0.3298 0.0946 0.0946 -0.3298 -19143.3359 -13811.3936)">
		</pattern>
		<path opacity="0.08" fill="url(#SVGID_5_)" enable-background="new    " d="M105.2,542.499c-40.5-2.799-75.8-20.299-87.3-30.5
			c-11.5-10.299-17.5-31.6-17.5-31.6C0,495.399,0,506.7,0,506.7S4.5,560.1,36.2,581.6c31.7,21.5,56.7,14,56.7,14
			s33.1-8.2,57.8-41.899c4.5-6.201,9.3-14.5,14.1-23.801C164.7,529.899,145.6,545.2,105.2,542.499z"/>
		<path opacity="0.22" enable-background="new    " d="M90,590.499c-12.5,1.801-31.3-2-45.1-7.699c-13.6-5.698-24-16.399-24-16.399
			c4.2,5.801,9.3,11.1,15.3,15.2c31.7,21.5,56.7,14,56.7,14s11.7-2.899,26.3-12.301C119.2,583.3,104.6,588.499,90,590.499z"/>
	</g>
	<g>
		<path opacity="0.1" fill="#E6E6E6" enable-background="new    " d="M700.8,542.499c40.5-2.799,75.8-20.299,87.3-30.5
			c11.5-10.199,17.5-31.5,17.5-31.5c0.4,15,0.4,26.301,0.4,26.301s-4.5,53.4-36.2,74.9s-56.7,14-56.7,14s-33.1-8.201-57.8-41.9
			c-4.5-6.199-9.3-14.5-14.1-23.801C641.3,529.899,660.4,545.2,700.8,542.499z"/>
		
			<pattern  id="SVGID_6_" xlink:href="#SVGID_3_" patternTransform="matrix(-0.3298 0.0946 -0.0946 -0.3298 -38464.3047 -13832.0811)">
		</pattern>
		<path opacity="0.08" fill="url(#SVGID_6_)" enable-background="new    " d="M700.8,542.499c40.5-2.799,75.8-20.299,87.3-30.5
			c11.5-10.199,17.5-31.5,17.5-31.5c0.4,15,0.4,26.301,0.4,26.301s-4.5,53.4-36.2,74.9s-56.7,14-56.7,14s-33.1-8.201-57.8-41.9
			c-4.5-6.199-9.3-14.5-14.1-23.801C641.3,529.899,660.4,545.2,700.8,542.499z"/>
		<path opacity="0.22" enable-background="new    " d="M716,590.499c12.5,1.801,31.3-2,45.1-7.699c13.602-5.698,24-16.399,24-16.399
			c-4.198,5.801-9.3,11.1-15.3,15.2c-31.7,21.5-56.7,14-56.7,14s-11.698-2.899-26.3-12.301C686.8,583.3,701.4,588.499,716,590.499z"
			/>
	</g>
	<g>
		<g>
			<path d="M240.5,141.5c6.9,0,12.5,5.6,12.5,12.5v18.3c0,6.9-5.6,12.5-12.5,12.5s-12.5-5.6-12.5-12.5V154
				C228,147.1,233.6,141.5,240.5,141.5 M240.5,139.8c-7.8,0-14.2,6.4-14.2,14.2v18.3c0,7.8,6.4,14.2,14.2,14.2s14.2-6.4,14.2-14.2
				V154C254.7,146.1,248.3,139.8,240.5,139.8L240.5,139.8z"/>
			<path fill="#10111A" d="M240.5,141.5c-6.9,0-12.5,5.6-12.5,12.5v18.3c0,6.9,5.6,12.5,12.5,12.5s12.5-5.6,12.5-12.5V154
				C253,147.1,247.4,141.5,240.5,141.5z"/>
		</g>
	</g>
	<g>
		<g>
			<path d="M565.5,141.5c6.9,0,12.5,5.6,12.5,12.5v18.3c0,6.9-5.6,12.5-12.5,12.5l0,0c-6.9,0-12.5-5.6-12.5-12.5V154
				C553,147.1,558.6,141.5,565.5,141.5L565.5,141.5 M565.5,139.8c-7.8,0-14.2,6.4-14.2,14.2v18.3c0,7.8,6.4,14.2,14.2,14.2
				s14.2-6.4,14.2-14.2V154C579.7,146.1,573.3,139.8,565.5,139.8L565.5,139.8z"/>
			<path fill="#10111A" d="M565.5,141.5c-6.9,0-12.5,5.6-12.5,12.5v18.3c0,6.9,5.6,12.5,12.5,12.5s12.5-5.6,12.5-12.5V154
				C578,147.1,572.4,141.5,565.5,141.5z"/>
		</g>
	</g>
	<g>
		<g>
			<path fill="#1A1A1A" d="M141.2,245.2c1.4-2,1.2-2.9,1.2-2.9s0.2-0.899-1.2-2.899c-1.4-2-15-13.601-15.7-14s-28.5-2.2-31.4,1.3
				s-2.6,15.6-2.6,15.6S91.2,254.4,94.1,257.9s30.7,1.7,31.4,1.3C126.2,258.8,139.8,247.2,141.2,245.2z"/>
			<path opacity="0.25" enable-background="new    " d="M141.2,245.2c1.4-2,1.2-2.9,1.2-2.9s0.2-0.899-1.2-2.899
				c-0.9-1.3-6.9-6.601-11.2-10.3c-2.1,3.9-3.4,8.4-3.4,13.199c0,4.801,1.2,9.301,3.4,13.201C134.3,251.799,140.3,246.5,141.2,245.2
				z"/>
		</g>
		<g>
			<path fill="#1A1A1A" d="M151,229.6c2,1.4,2.9,1.199,2.9,1.199s0.9,0.201,2.9-1.199s13.6-15,14-15.7c0.4-0.7,2.2-28.5-1.3-31.4
				s-15.6-2.6-15.6-2.6s-12.1-0.3-15.6,2.6s-1.7,30.7-1.3,31.4C137.5,214.6,149,228.2,151,229.6z"/>
			<path opacity="0.25" enable-background="new    " d="M151,229.6c2,1.4,2.9,1.199,2.9,1.199s0.9,0.201,2.9-1.199
				c1.3-0.9,6.6-6.9,10.3-11.2c-3.9-2.101-8.4-3.399-13.2-3.399c-4.8,0-9.3,1.199-13.2,3.399C144.5,222.7,149.7,228.7,151,229.6z"/>
		</g>
		<g>
			<path fill="#1A1A1A" d="M213.7,226.799c-2.9-3.5-30.7-1.699-31.4-1.299c-0.7,0.399-14.3,12-15.7,14s-1.2,2.899-1.2,2.899
				s-0.2,0.899,1.2,2.899s15,13.601,15.7,14c0.7,0.4,28.5,2.201,31.4-1.299c2.899-3.5,2.6-15.601,2.6-15.601
				S216.6,230.299,213.7,226.799z"/>
			<path opacity="0.25" enable-background="new    " d="M177.9,229.2c-4.3,3.7-10.3,9-11.2,10.301c-1.4,2-1.2,2.899-1.2,2.899
				s-0.2,0.899,1.2,2.899c0.9,1.301,6.9,6.601,11.2,10.301c2.1-3.9,3.4-8.4,3.4-13.2C181.3,237.6,180,233.1,177.9,229.2z"/>
		</g>
		<g>
			<path fill="#1A1A1A" d="M156.8,255.1c-2-1.4-2.9-1.2-2.9-1.2s-0.9-0.2-2.9,1.2s-13.6,15-14,15.699
				c-0.4,0.701-2.2,28.5,1.3,31.401c3.5,2.9,15.6,2.6,15.6,2.6s12.1,0.301,15.6-2.6c3.5-2.901,1.7-30.7,1.3-31.401
				C170.4,270,158.8,256.5,156.8,255.1z"/>
			<path opacity="0.25" enable-background="new    " d="M156.8,255.1c-2-1.4-2.9-1.2-2.9-1.2s-0.9-0.2-2.9,1.2
				c-1.3,0.9-6.6,6.9-10.3,11.199c3.9,2.101,8.4,3.4,13.2,3.4c4.8,0,9.3-1.199,13.2-3.4C163.4,262,158.1,256,156.8,255.1z"/>
		</g>
	</g>
</g>
<g>
	<g>
		<circle cx="402.9" cy="314.399" r="4.1"/>
		<circle cx="402.9" cy="293.5" r="4.1"/>
		<circle cx="396" cy="303.7" r="4.1"/>
		<circle cx="381.301" cy="303.7" r="4.1"/>
		<circle cx="388.601" cy="314.399" r="4.1"/>
		<circle cx="388.601" cy="293.5" r="4.1"/>
		<circle cx="374.301" cy="293.5" r="4.1"/>
	</g>
	<g>
		<circle cx="409.801" cy="303.7" r="4.1"/>
		<circle cx="424.5" cy="303.7" r="4.1"/>
		<circle cx="417.101" cy="314.399" r="4.1"/>
		<circle cx="417.101" cy="293.5" r="4.1"/>
		<circle cx="431.5" cy="293.5" r="4.1"/>
	</g>
</g>
<g opacity="0.12">
	<path fill="#FFFFFF" d="M402.9,317.499c-2.101,0-3.801-1.6-4.101-3.6c0,0.2-0.101,0.301-0.101,0.5c0,2.301,1.8,4.1,4.101,4.1
		c2.3,0,4.101-1.799,4.101-4.1c0-0.199,0-0.3-0.101-0.5C406.7,315.899,405,317.499,402.9,317.499z"/>
	<path fill="#FFFFFF" d="M402.9,297.6c2.3,0,4.1-1.801,4.1-4.1c0-0.201,0-0.301-0.1-0.5c-0.2,2-2,3.6-4.101,3.6
		s-3.801-1.6-4.101-3.6c0,0.199-0.101,0.299-0.101,0.5C398.801,295.7,400.601,297.6,402.9,297.6z"/>
	<path fill="#FFFFFF" d="M400.101,303.7c0-0.201,0-0.301-0.101-0.5c-0.199,2-2,3.6-4.1,3.6s-3.8-1.6-4.1-3.6
		c0,0.199-0.101,0.299-0.101,0.5c0,2.299,1.8,4.1,4.101,4.1C398.2,307.8,400.101,305.999,400.101,303.7z"/>
	<path fill="#FFFFFF" d="M385.301,303.2c-0.2,2-2,3.6-4.101,3.6c-2.1,0-3.8-1.6-4.1-3.6c0,0.199-0.101,0.299-0.101,0.5
		c0,2.299,1.801,4.1,4.101,4.1c2.3,0,4.1-1.801,4.1-4.1C385.4,303.499,385.4,303.399,385.301,303.2z"/>
	<path fill="#FFFFFF" d="M388.7,317.499c-2.1,0-3.8-1.6-4.1-3.6c0,0.2-0.101,0.301-0.101,0.5c0,2.301,1.801,4.1,4.101,4.1
		c2.3,0,4.1-1.799,4.1-4.1c0-0.199,0-0.3-0.1-0.5C392.5,315.899,390.801,317.499,388.7,317.499z"/>
	<path fill="#FFFFFF" d="M388.7,297.6c2.3,0,4.101-1.801,4.101-4.1c0-0.201,0-0.301-0.101-0.5c-0.2,2-2,3.6-4.1,3.6
		c-2.101,0-3.8-1.6-4.101-3.6c0,0.199-0.1,0.299-0.1,0.5C384.5,295.7,386.4,297.6,388.7,297.6z"/>
	<path fill="#FFFFFF" d="M378.5,293.5c0-0.201,0-0.301-0.1-0.5c-0.2,2-2,3.6-4.1,3.6c-2.101,0-3.801-1.6-4.101-3.6
		c0,0.199-0.1,0.299-0.1,0.5c0,2.299,1.8,4.1,4.1,4.1C376.601,297.6,378.5,295.7,378.5,293.5z"/>
	<path fill="#FFFFFF" d="M413.9,303.2c-0.2,2-2,3.6-4.101,3.6s-3.801-1.6-4.101-3.6c0,0.199-0.101,0.299-0.101,0.5
		c0,2.299,1.801,4.1,4.101,4.1s4.101-1.801,4.101-4.1C414,303.499,413.9,303.399,413.9,303.2z"/>
	<path fill="#FFFFFF" d="M424.5,306.8c-2.1,0-3.8-1.6-4.1-3.6c0,0.199-0.101,0.299-0.101,0.5c0,2.299,1.8,4.1,4.101,4.1
		c2.3,0,4.1-1.801,4.1-4.1c0-0.201,0-0.301-0.1-0.5C428.4,305.3,426.601,306.8,424.5,306.8z"/>
	<path fill="#FFFFFF" d="M417.2,317.499c-2.101,0-3.8-1.6-4.101-3.6c0,0.2-0.101,0.301-0.101,0.5c0,2.301,1.801,4.1,4.101,4.1
		c2.301,0,4.101-1.799,4.101-4.1c0-0.199,0-0.3-0.101-0.5C421,315.899,419.301,317.499,417.2,317.499z"/>
	<path fill="#FFFFFF" d="M417.2,297.6c2.3,0,4.101-1.801,4.101-4.1c0-0.201,0-0.301-0.101-0.5c-0.2,2-2,3.6-4.101,3.6
		s-3.8-1.6-4.101-3.6c0,0.199-0.1,0.299-0.1,0.5C413,295.7,414.9,297.6,417.2,297.6z"/>
	<path fill="#FFFFFF" d="M431.5,296.6c-2.1,0-3.8-1.6-4.1-3.6c0,0.199-0.101,0.299-0.101,0.5c0,2.299,1.8,4.1,4.101,4.1
		c2.3,0,4.1-1.801,4.1-4.1c0-0.201,0-0.301-0.1-0.5C435.301,295,433.601,296.6,431.5,296.6z"/>
</g>
<path fill="#0B0B0F" d="M436.5,418.999h-67.899c-2.8,0-4.601,0.602-4.601-2.199l0,0c0-2.801,2.301-5,5-5h67.9c2.8,0,5,2.301,5,5l0,0
	C442,419.499,439.301,418.999,436.5,418.999z"/>
<path d="M408.2,416.8h-36.5c-0.5,0-0.899-0.399-0.899-0.899l0,0c0-1.101,0.899-2,2-2H407c1.101,0,2,0.899,2,2l0,0
	C409.101,416.399,408.7,416.8,408.2,416.8z"/>
<path d="M430.4,417.601h-4.2c-0.899,0-1.7-0.801-1.7-1.7l0,0c0-1.601,1.301-2.8,2.801-2.8h1.899c1.601,0,2.8,1.3,2.8,2.8l0,0
	C432.101,416.899,431.4,417.601,430.4,417.601z"/>
<g>
	<g>
		<g>
			<g>
				<path fill="#1A1A1A" d="M709.801,269c-14.5,0-26.301-11.801-26.301-26.301s11.801-26.3,26.301-26.3s26.3,11.8,26.3,26.3
					S724.301,269,709.801,269z"/>
				<path fill="#0F0F0F" d="M709.801,217.5c13.899,0,25.3,11.299,25.3,25.299S723.801,268,709.801,268S684.5,256.7,684.5,242.7
					S695.9,217.5,709.801,217.5 M709.801,215.5c-15,0-27.301,12.199-27.301,27.299c0,15.101,12.2,27.301,27.301,27.301
					s27.3-12.2,27.3-27.301C737.101,227.7,724.801,215.5,709.801,215.5L709.801,215.5z"/>
			</g>
			<path fill="#FF6666" d="M709.801,223.9c-10.399,0-18.899,8.5-18.899,18.899c0,10.4,8.5,18.9,18.899,18.9s18.899-8.5,18.899-18.9
				C728.7,232.4,720.301,223.9,709.801,223.9z M709.801,258.799c-8.899,0-16-7.199-16-16c0-8.899,7.199-16,16-16
				c8.8,0,16,7.201,16,16C725.9,251.7,718.7,258.799,709.801,258.799z"/>
		</g>
		<g>
			<g>
				<path fill="#1A1A1A" d="M652.2,326.601c-14.5,0-26.3-11.801-26.3-26.301s11.8-26.299,26.3-26.299s26.3,11.799,26.3,26.299
					S666.7,326.601,652.2,326.601z"/>
				<path fill="#0F0F0F" d="M652.2,275.1c13.899,0,25.3,11.3,25.3,25.299c0,14-11.3,25.301-25.3,25.301s-25.3-11.301-25.3-25.301
					C626.9,286.4,638.301,275.1,652.2,275.1 M652.2,273.1c-15,0-27.3,12.199-27.3,27.299c0,15,12.199,27.301,27.3,27.301
					s27.3-12.201,27.3-27.301C679.5,285.4,667.301,273.1,652.2,273.1L652.2,273.1z"/>
			</g>
			<polygon fill="#7CB2E8" points="666.601,288 664.601,286 652.2,298.399 639.9,286 637.9,288 650.2,300.399 637.9,312.7 
				639.9,314.7 652.2,302.399 664.601,314.7 666.601,312.7 654.2,300.399 			"/>
		</g>
		<g>
			<g>
				<path fill="#1A1A1A" d="M594.7,269c-14.5,0-26.3-11.801-26.3-26.301s11.8-26.3,26.3-26.3s26.3,11.8,26.3,26.3
					S609.101,269,594.7,269z"/>
				<path fill="#0F0F0F" d="M594.601,217.5c13.899,0,25.301,11.299,25.301,25.299S608.601,268,594.601,268s-25.3-11.301-25.3-25.301
					S580.7,217.5,594.601,217.5 M594.601,215.5c-15,0-27.3,12.199-27.3,27.299c0,15.101,12.199,27.301,27.3,27.301
					s27.301-12.2,27.301-27.301C621.9,227.7,609.7,215.5,594.601,215.5L594.601,215.5z"/>
			</g>
			<path fill="#FF69F8" d="M606.2,228.4h-23h-2.8v2.8v23v2.8h2.8h23h2.8v-2.8v-23v-2.8H606.2L606.2,228.4z M606.2,254.299h-23v-23
				h23V254.299z"/>
		</g>
		<g>
			<g>
				<path fill="#1A1A1A" d="M652.2,211.5c-14.5,0-26.3-11.801-26.3-26.301s11.8-26.3,26.3-26.3s26.3,11.8,26.3,26.3
					S666.7,211.5,652.2,211.5z"/>
				<path fill="#0F0F0F" d="M652.2,160c13.899,0,25.3,11.3,25.3,25.3s-11.3,25.3-25.3,25.3s-25.3-11.3-25.3-25.3
					S638.301,160,652.2,160 M652.2,158c-15,0-27.3,12.2-27.3,27.3c0,15.1,12.199,27.3,27.3,27.3s27.3-12.2,27.3-27.3
					C679.5,170.2,667.301,158,652.2,158L652.2,158z"/>
			</g>
			<path fill="#40E2A0" d="M668.2,193.2l-16-27.6l-16,27.6L634.6,196h3.301h14.3h14.3h3.301L668.2,193.2z M652.2,193.2h-12.7
				l12.7-21.9l12.7,21.9H652.2z"/>
		</g>
	</g>
</g>
<g>
	<circle fill="#050505" stroke="#000000" stroke-width="2" stroke-miterlimit="10" cx="402.9" cy="360" r="20.2"/>
	<g>
		<path fill="#F2F2F2" d="M404,366.601V363.8v-3.5v-6.5c0-0.5,0.101-0.801,0.301-1c0.101-0.199,0.399-0.301,0.699-0.199
			c0.601,0.199,0.9,0.699,0.9,1.699v6.9c0.8,0.399,1.5,0.5,2.1,0.5c0.601,0,1.2-0.201,1.601-0.5c1-0.701,1.5-1.9,1.5-3.701
			c0-1.898-0.399-3.398-1.199-4.299c-0.801-1-2.101-1.9-4.101-2.601c-1.301-0.399-2.5-0.801-3.601-1.102
			c-1.101-0.299-2-0.5-2.899-0.699v12.199l0,0v2.701l0,0v1.699l0,0v2.5l0,0v1.5l4.699,1.5v-3.601l0,0V366.601z"/>
		<path fill="#F2F2F2" d="M398.9,365.601l-1.7,0.601l-0.899,0.399l-1.601,0.3l-1.5-0.199c-0.3-0.201-0.399-0.4-0.2-0.601
			c0.101-0.102,0.2-0.102,0.301-0.2c0.1-0.101,0.3-0.101,0.399-0.199l1.101-0.4l4.101-1.5v-2.699l-1.7,0.5l-5.5,2l-1,0.398
			c-1.5,0.602-2.2,1.201-2.2,1.801c0.101,0.801,1,1.5,2.7,1.9c0.7,0.199,1.4,0.299,2.101,0.399c0.699,0.101,1.399,0.101,2.199,0.101
			c1,0,2.101-0.101,3.301-0.301v-2.3H398.9z"/>
		<path fill="#F2F2F2" d="M414.7,363.3c-0.899-0.301-1.7-0.5-2.5-0.6c-0.8-0.101-1.7-0.201-2.5-0.101c-0.899,0-1.899,0.199-2.8,0.3
			c-0.801,0.2-1.7,0.399-2.601,0.801v2.799l3.899-1.398l1.601-0.5l1.101-0.301h1.399c0.3,0.101,0.601,0.199,0.699,0.4
			c0,0.199-0.199,0.399-0.8,0.6l-1.399,0.5l-6.5,2.4v2.699l3.5-1.3l6.399-2.301l0.7-0.399c1.5-0.5,2.199-1.199,2.199-1.9
			C417.101,364.399,416.301,363.8,414.7,363.3z"/>
	</g>
</g>
<g>
	<g>
		<g>
			<path fill="#0A0A0A" d="M697.101,107.9c0-0.8-0.399-1.5-1.101-1.9c-4.5-2.9-23.399-13.6-51.5-13.6c-26.899,0-41.1,5.9-45.1,8
				c-0.801,0.4-1.2,1.2-1.2,2c0,0,9.8-2.9,47.5-2.9S697.101,107.9,697.101,107.9z"/>
			<path fill="#121212" d="M697,114.8L697,114.8v-6.9c0,0-13.699-8.4-51.399-8.4c-37.8,0-47.5,2.9-47.5,2.9v11l0,0
				c7.7-1.3,21.2-2.6,44.101-2.6C670.7,110.9,688.101,113.2,697,114.8z"/>
		</g>
	</g>
	<g>
		<g>
			<path fill="#0A0A0A" d="M108.7,107.9c0-0.8,0.4-1.5,1.1-1.9c4.5-2.9,23.4-13.6,51.5-13.6c26.9,0,41.1,5.9,45.1,8
				c0.8,0.4,1.2,1.2,1.2,2c0,0-9.8-2.9-47.5-2.9C122.4,99.5,108.7,107.9,108.7,107.9z"/>
			<path fill="#121212" d="M108.8,114.8L108.8,114.8v-6.9c0,0,13.7-8.4,51.4-8.4c37.8,0,47.5,2.9,47.5,2.9v11l0,0
				c-7.7-1.3-21.2-2.6-44.1-2.6C135.101,110.9,117.7,113.2,108.8,114.8z"/>
		</g>
	</g>
</g>
<g>
	<g>
		<g>
			<g>
				<path fill="#121212" d="M697.101,88.8c0,0-32.699-3.2-50.601-3.2c-17.899,0-48.399,2.4-48.399,2.4s3.101-44.7,4.801-52
					c1.6-7.3,7.699-21.3,16.899-27.9C629,1.5,631.7-2,642.5-2c10.801,0,25.4,6.4,34.601,21.4C686.4,34.4,697.101,88.8,697.101,88.8z
					"/>
				<path fill="#0A0A0A" d="M598.601,81.2c0,0,26.101-4.4,49-4.4c22.801,0,47.899,4.4,47.899,4.4c1,4.7,1.601,7.6,1.601,7.6
					s-32.699-3.2-50.601-3.2c-17.899,0-48.399,2.4-48.399,2.4S598.301,85.3,598.601,81.2z"/>
			</g>
			<g opacity="0.08">
				<g>
					<path fill="#FFFFFF" d="M648.601,63.7c-2.101,1.7-3.199,2.6-3.199,2.6c-1.2,1.2-1.9,2.7-2,4.5h9.8v-2.6h-6.3
						c0.3-0.5,1-1.2,2.1-1.9c1.4-0.9,2.301-1.6,2.7-2.1c0.899-1,1.3-2.1,1.3-3.3c0-1.4-0.5-2.5-1.399-3.3
						c-0.899-0.8-2.101-1.2-3.5-1.2c-3.101,0-4.699,1.7-4.699,5h2.699c0-1.8,0.7-2.7,2.101-2.7c1.3,0,2,0.7,2,2.1
						C650.4,61.9,649.801,62.8,648.601,63.7z"/>
				</g>
				<path fill="#FFFFFF" d="M631,65.2h3c1.5,0,2.301,0.6,2.4,1.9c0.1,1.2,0.199,2.5,0.3,3.8h3.3v-0.4c-0.5-0.2-0.699-0.7-0.699-1.5
					c0-0.2,0-0.4,0.101-0.8v-0.7c0-1.7-0.601-2.9-1.801-3.5c1.399-0.5,2.2-1.6,2.2-3.4c0-1.3-0.399-2.3-1.301-3
					c-0.8-0.7-1.899-1-3.199-1H628v14.3h3V65.2z M631,59h3.7c1.399,0,2.101,0.6,2.101,1.9c0,1.3-0.801,1.9-2.301,1.9H631V59z"/>
			</g>
		</g>
	</g>
	<g>
		<g>
			<g>
				<path fill="#121212" d="M108.7,88.8c0,0,32.7-3.2,50.6-3.2c17.9,0,48.3,2.4,48.3,2.4s-3.1-44.7-4.8-52
					c-1.6-7.3-7.7-21.3-16.9-27.9C176.8,1.4,174.101-2,163.3-2c-10.8,0-25.4,6.4-34.6,21.4C119.5,34.4,108.7,88.8,108.7,88.8z"/>
				<path fill="#0A0A0A" d="M207.2,81.2c0,0-26.1-4.4-49-4.4c-22.8,0-47.9,4.4-47.9,4.4c-1,4.7-1.6,7.6-1.6,7.6s32.7-3.2,50.6-3.2
					c17.9,0,48.3,2.4,48.3,2.4S207.5,85.3,207.2,81.2z"/>
			</g>
			<g opacity="0.08">
				<g>
					<path fill="#FFFFFF" d="M173.2,63.7c-2.1,1.7-3.2,2.6-3.2,2.6c-1.2,1.2-1.9,2.7-2,4.5h9.8v-2.6h-6.2c0.3-0.5,1-1.2,2.1-1.9
						c1.4-0.9,2.3-1.6,2.7-2.1c0.9-1,1.3-2.1,1.3-3.3c0-1.4-0.5-2.5-1.4-3.3c-0.9-0.8-2.1-1.2-3.5-1.2c-3.1,0-4.7,1.7-4.7,5h2.7
						c0-1.8,0.7-2.7,2.1-2.7c1.3,0,2,0.7,2,2.1C175,61.9,174.4,62.8,173.2,63.7z"/>
				</g>
				<polygon fill="#FFFFFF" points="164.7,68.2 157.7,68.2 157.7,56.5 154.601,56.5 154.601,70.8 164.7,70.8 				"/>
			</g>
		</g>
	</g>
</g>
<g>
	<g>
		<path fill="#CCCCCC" d="M547.5,132.6c0,2.1-1.5,3.8-4.1,3.8c-2.601,0-4.101-1.7-4.101-3.8c0-2,1.5-3.8,4.101-3.8
			C546,128.8,547.5,130.5,547.5,132.6z M540.801,132.6c0,1.4,0.8,2.7,2.601,2.7c1.8,0,2.6-1.4,2.6-2.7c0-1.4-0.8-2.7-2.6-2.7
			C541.601,129.9,540.801,131.2,540.801,132.6z"/>
		<path fill="#CCCCCC" d="M548.801,129h3.8c2.399,0,2.899,1.3,2.899,2.2c0,0.9-0.5,2.2-2.899,2.2h-2.3v2.8h-1.5V129z M550.301,132.4
			h2.199c0.7,0,1.5-0.3,1.5-1.2c0-0.9-0.699-1.2-1.5-1.2h-2.199V132.4z"/>
		<path fill="#CCCCCC" d="M556,129h6.9v1.1h-2.7v6.1h-1.5V130H556V129z"/>
		<path fill="#CCCCCC" d="M564,129h1.5v7.2H564V129z"/>
		<path fill="#CCCCCC" d="M575,132.6c0,2.1-1.5,3.8-4.1,3.8c-2.601,0-4.101-1.7-4.101-3.8c0-2,1.5-3.8,4.101-3.8
			C573.5,128.8,575,130.5,575,132.6z M568.301,132.6c0,1.4,0.8,2.7,2.601,2.7c1.8,0,2.6-1.4,2.6-2.7c0-1.4-0.8-2.7-2.6-2.7
			C569.101,129.9,568.301,131.2,568.301,132.6z"/>
		<path fill="#CCCCCC" d="M576.4,129h1.6l3.9,5.3l0,0V129h1.399v7.2h-1.6l-3.899-5.3l0,0v5.3h-1.399L576.4,129L576.4,129z"/>
		<path fill="#CCCCCC" d="M586.101,133.8c0,1.1,1,1.5,2.2,1.5c1.3,0,1.8-0.6,1.8-1.1c0-0.6-0.399-0.8-0.699-0.9
			c-0.601-0.2-1.4-0.3-2.601-0.6c-1.5-0.3-1.899-1.1-1.899-1.8c0-1.5,1.6-2.1,3.1-2.1c1.801,0,3.301,0.8,3.301,2.3h-1.5
			c-0.101-0.9-0.801-1.3-1.801-1.3c-0.699,0-1.6,0.2-1.6,0.9c0,0.5,0.399,0.8,1,0.9c0.1,0,2,0.4,2.5,0.6
			c1.1,0.3,1.699,1.1,1.699,1.8c0,1.6-1.699,2.3-3.399,2.3c-2,0-3.5-0.8-3.601-2.6h1.5V133.8z"/>
	</g>
	<g>
		<path fill="#CCCCCC" d="M222.101,133.8c0,1.1,1,1.5,2.2,1.5c1.3,0,1.8-0.6,1.8-1.1c0-0.6-0.4-0.8-0.7-0.9
			c-0.6-0.2-1.4-0.3-2.6-0.6c-1.5-0.3-1.9-1.1-1.9-1.8c0-1.5,1.6-2.1,3.1-2.1c1.801,0,3.301,0.8,3.301,2.3h-1.5
			c-0.101-0.9-0.801-1.3-1.801-1.3c-0.699,0-1.6,0.2-1.6,0.9c0,0.5,0.4,0.8,1,0.9c0.1,0,2,0.4,2.5,0.6c1.1,0.3,1.7,1.1,1.7,1.8
			c0,1.6-1.7,2.3-3.4,2.3c-2,0-3.5-0.8-3.6-2.6h1.5V133.8z"/>
		<path fill="#CCCCCC" d="M228.801,129h1.5v2.9h3.899V129h1.5v7.2h-1.5V133h-3.899v3.2h-1.5V129z"/>
		<path fill="#CCCCCC" d="M239.801,129h1.6l3.3,7.2h-1.6l-0.8-1.9h-3.4l-0.8,1.9h-1.5L239.801,129z M239.301,133.3h2.6l-1.3-3.1l0,0
			L239.301,133.3z"/>
		<path fill="#CCCCCC" d="M245.5,129h4.101c1.899,0,2.8,0.7,2.8,1.9c0,1.4-1.1,1.7-1.4,1.8l0,0c0.5,0.1,1.301,0.4,1.301,1.5
			c0,0.8,0.1,1.6,0.5,1.9H251.2c-0.2-0.3-0.2-0.7-0.2-1.1c0-1.3-0.3-1.9-1.699-1.9h-2.2v3h-1.5V129H245.5z M247,132.2h2.5
			c1,0,1.5-0.4,1.5-1.1c0-0.9-0.699-1.1-1.5-1.1h-2.399v2.2H247L247,132.2z"/>
		<path fill="#CCCCCC" d="M254,129h6.2v1.1h-4.7v1.9h4.301v1H255.5v2.1h4.7v1.1H254V129L254,129z"/>
	</g>
</g>
</svg>
